M48
; DRILL file KiCad 10.0.3 date 2026-08-07T21:45:30
; FORMAT={-:-/ absolute / metric / decimal}
; #@! TF.CreationDate,2026-08-07T21:45:30-04:00
; #@! TF.GenerationSoftware,Kicad,Pcbnew,10.0.3
; #@! TF.FileFunction,Plated,1,2,PTH
FMAT,2
METRIC
; #@! TA.AperFunction,Plated,PTH,ComponentDrill
T1C1.000
; #@! TA.AperFunction,Plated,PTH,ComponentDrill
T2C1.500
%
G90
G05
T1
X107.47Y-55.34
X107.47Y-57.88
X107.47Y-60.42
X107.47Y-62.96
X107.47Y-65.5
X107.47Y-68.04
X107.47Y-70.58
X122.72Y-55.34
X122.72Y-57.88
X122.72Y-60.42
X122.72Y-62.96
X122.72Y-65.5
X122.72Y-68.04
X122.72Y-70.58
X130.255Y-62.335
X132.795Y-62.335
X135.335Y-62.335
X137.875Y-62.335
T2
X111.356Y-59.372
X111.356Y-78.422
X111.38Y-97.53
X117.706Y-56.832
X117.706Y-75.882
X117.73Y-94.99
M30
