ISO-10303-21;
HEADER;
/* Generated by software containing ST-Developer
 * from STEP Tools, Inc. (www.steptools.com) 
 */
/* OPTION: using custom renumber hook */

FILE_DESCRIPTION(
/* description */ ('STEP AP242 Edition 2',
'CAx-IF Rec.Pracs.---Representation and Presentation of Product Manufa
cturing Information (PMI)---4.0---2014-10-13',
'CAx-IF Rec.Pracs.---3D Tessellated Geometry---0.4---2014-09-14','2;1',
'CAx-IF Rec.Pracs.---User Defined Attributes---1.5---2016-08-15'),
/* implementation_level */ '2;1');

FILE_NAME(
/* name */ 'Part Studio 1 - Part 1',
/* time_stamp */ '2026-08-07T23:19:39Z',
/* author */ (''),
/* organization */ (''),
/* preprocessor_version */ 'ST-DEVELOPER v20',
/* originating_system */ 'ONSHAPE BY PTC INC, 1.219',
/* authorisation */ '  ');

FILE_SCHEMA (('AP242_MANAGED_MODEL_BASED_3D_ENGINEERING_MIM_LF { 1 0 10303 442 3 1 4 }'));
ENDSEC;

DATA;
#10=SHAPE_REPRESENTATION_RELATIONSHIP('','',#393,#11);
#11=ADVANCED_BREP_SHAPE_REPRESENTATION('',(#391),#625);
#12=CIRCLE('',#400,0.00145);
#13=CIRCLE('',#401,0.00145);
#14=CIRCLE('',#403,0.00145);
#15=CIRCLE('',#404,0.00145);
#16=CIRCLE('',#406,0.00145);
#17=CIRCLE('',#407,0.00145);
#18=CIRCLE('',#409,0.00145);
#19=CIRCLE('',#410,0.00145);
#20=CYLINDRICAL_SURFACE('',#399,0.00145);
#21=CYLINDRICAL_SURFACE('',#402,0.00145);
#22=CYLINDRICAL_SURFACE('',#405,0.00145);
#23=CYLINDRICAL_SURFACE('',#408,0.00145);
#24=ORIENTED_EDGE('',*,*,#120,.T.);
#25=ORIENTED_EDGE('',*,*,#121,.T.);
#26=ORIENTED_EDGE('',*,*,#122,.T.);
#27=ORIENTED_EDGE('',*,*,#123,.F.);
#28=ORIENTED_EDGE('',*,*,#124,.F.);
#29=ORIENTED_EDGE('',*,*,#125,.F.);
#30=ORIENTED_EDGE('',*,*,#126,.T.);
#31=ORIENTED_EDGE('',*,*,#127,.T.);
#32=ORIENTED_EDGE('',*,*,#128,.F.);
#33=ORIENTED_EDGE('',*,*,#129,.F.);
#34=ORIENTED_EDGE('',*,*,#130,.T.);
#35=ORIENTED_EDGE('',*,*,#131,.F.);
#36=ORIENTED_EDGE('',*,*,#132,.T.);
#37=ORIENTED_EDGE('',*,*,#126,.F.);
#38=ORIENTED_EDGE('',*,*,#133,.F.);
#39=ORIENTED_EDGE('',*,*,#134,.T.);
#40=ORIENTED_EDGE('',*,*,#135,.F.);
#41=ORIENTED_EDGE('',*,*,#136,.F.);
#42=ORIENTED_EDGE('',*,*,#137,.T.);
#43=ORIENTED_EDGE('',*,*,#128,.T.);
#44=ORIENTED_EDGE('',*,*,#138,.F.);
#45=ORIENTED_EDGE('',*,*,#139,.T.);
#46=ORIENTED_EDGE('',*,*,#140,.F.);
#47=ORIENTED_EDGE('',*,*,#141,.T.);
#48=ORIENTED_EDGE('',*,*,#142,.F.);
#49=ORIENTED_EDGE('',*,*,#143,.T.);
#50=ORIENTED_EDGE('',*,*,#144,.F.);
#51=ORIENTED_EDGE('',*,*,#145,.T.);
#52=ORIENTED_EDGE('',*,*,#146,.F.);
#53=ORIENTED_EDGE('',*,*,#134,.F.);
#54=ORIENTED_EDGE('',*,*,#147,.T.);
#55=ORIENTED_EDGE('',*,*,#136,.T.);
#56=ORIENTED_EDGE('',*,*,#132,.F.);
#57=ORIENTED_EDGE('',*,*,#146,.T.);
#58=ORIENTED_EDGE('',*,*,#135,.T.);
#59=ORIENTED_EDGE('',*,*,#127,.F.);
#60=ORIENTED_EDGE('',*,*,#138,.T.);
#61=ORIENTED_EDGE('',*,*,#140,.T.);
#62=ORIENTED_EDGE('',*,*,#142,.T.);
#63=ORIENTED_EDGE('',*,*,#144,.T.);
#64=ORIENTED_EDGE('',*,*,#123,.T.);
#65=ORIENTED_EDGE('',*,*,#148,.T.);
#66=ORIENTED_EDGE('',*,*,#149,.F.);
#67=ORIENTED_EDGE('',*,*,#150,.T.);
#68=ORIENTED_EDGE('',*,*,#151,.F.);
#69=ORIENTED_EDGE('',*,*,#152,.F.);
#70=ORIENTED_EDGE('',*,*,#153,.F.);
#71=ORIENTED_EDGE('',*,*,#149,.T.);
#72=ORIENTED_EDGE('',*,*,#154,.F.);
#73=ORIENTED_EDGE('',*,*,#155,.F.);
#74=ORIENTED_EDGE('',*,*,#156,.F.);
#75=ORIENTED_EDGE('',*,*,#152,.T.);
#76=ORIENTED_EDGE('',*,*,#157,.F.);
#77=ORIENTED_EDGE('',*,*,#158,.T.);
#78=ORIENTED_EDGE('',*,*,#155,.T.);
#79=ORIENTED_EDGE('',*,*,#159,.T.);
#80=ORIENTED_EDGE('',*,*,#160,.F.);
#81=ORIENTED_EDGE('',*,*,#120,.F.);
#82=ORIENTED_EDGE('',*,*,#150,.F.);
#83=ORIENTED_EDGE('',*,*,#153,.T.);
#84=ORIENTED_EDGE('',*,*,#156,.T.);
#85=ORIENTED_EDGE('',*,*,#158,.F.);
#86=ORIENTED_EDGE('',*,*,#161,.T.);
#87=ORIENTED_EDGE('',*,*,#129,.T.);
#88=ORIENTED_EDGE('',*,*,#137,.F.);
#89=ORIENTED_EDGE('',*,*,#147,.F.);
#90=ORIENTED_EDGE('',*,*,#133,.T.);
#91=ORIENTED_EDGE('',*,*,#125,.T.);
#92=ORIENTED_EDGE('',*,*,#145,.F.);
#93=ORIENTED_EDGE('',*,*,#143,.F.);
#94=ORIENTED_EDGE('',*,*,#141,.F.);
#95=ORIENTED_EDGE('',*,*,#139,.F.);
#96=ORIENTED_EDGE('',*,*,#148,.F.);
#97=ORIENTED_EDGE('',*,*,#122,.F.);
#98=ORIENTED_EDGE('',*,*,#162,.F.);
#99=ORIENTED_EDGE('',*,*,#159,.F.);
#100=ORIENTED_EDGE('',*,*,#154,.T.);
#101=ORIENTED_EDGE('',*,*,#151,.T.);
#102=ORIENTED_EDGE('',*,*,#160,.T.);
#103=ORIENTED_EDGE('',*,*,#124,.T.);
#104=ORIENTED_EDGE('',*,*,#163,.F.);
#105=ORIENTED_EDGE('',*,*,#164,.F.);
#106=ORIENTED_EDGE('',*,*,#121,.F.);
#107=ORIENTED_EDGE('',*,*,#163,.T.);
#108=ORIENTED_EDGE('',*,*,#131,.T.);
#109=ORIENTED_EDGE('',*,*,#165,.F.);
#110=ORIENTED_EDGE('',*,*,#166,.F.);
#111=ORIENTED_EDGE('',*,*,#157,.T.);
#112=ORIENTED_EDGE('',*,*,#167,.T.);
#113=ORIENTED_EDGE('',*,*,#165,.T.);
#114=ORIENTED_EDGE('',*,*,#130,.F.);
#115=ORIENTED_EDGE('',*,*,#161,.F.);
#116=ORIENTED_EDGE('',*,*,#162,.T.);
#117=ORIENTED_EDGE('',*,*,#164,.T.);
#118=ORIENTED_EDGE('',*,*,#166,.T.);
#119=ORIENTED_EDGE('',*,*,#167,.F.);
#120=EDGE_CURVE('',#168,#169,#202,.T.);
#121=EDGE_CURVE('',#169,#170,#203,.T.);
#122=EDGE_CURVE('',#170,#171,#204,.T.);
#123=EDGE_CURVE('',#168,#171,#205,.T.);
#124=EDGE_CURVE('',#172,#173,#206,.T.);
#125=EDGE_CURVE('',#174,#172,#207,.T.);
#126=EDGE_CURVE('',#174,#175,#208,.T.);
#127=EDGE_CURVE('',#175,#176,#209,.T.);
#128=EDGE_CURVE('',#177,#176,#210,.T.);
#129=EDGE_CURVE('',#178,#177,#211,.T.);
#130=EDGE_CURVE('',#178,#179,#212,.T.);
#131=EDGE_CURVE('',#173,#179,#213,.T.);
#132=EDGE_CURVE('',#180,#175,#214,.T.);
#133=EDGE_CURVE('',#181,#174,#215,.T.);
#134=EDGE_CURVE('',#181,#180,#216,.T.);
#135=EDGE_CURVE('',#182,#176,#217,.T.);
#136=EDGE_CURVE('',#183,#182,#218,.T.);
#137=EDGE_CURVE('',#183,#177,#219,.T.);
#138=EDGE_CURVE('',#184,#184,#12,.T.);
#139=EDGE_CURVE('',#185,#185,#13,.T.);
#140=EDGE_CURVE('',#186,#186,#14,.T.);
#141=EDGE_CURVE('',#187,#187,#15,.T.);
#142=EDGE_CURVE('',#188,#188,#16,.T.);
#143=EDGE_CURVE('',#189,#189,#17,.T.);
#144=EDGE_CURVE('',#190,#190,#18,.T.);
#145=EDGE_CURVE('',#191,#191,#19,.T.);
#146=EDGE_CURVE('',#180,#182,#220,.T.);
#147=EDGE_CURVE('',#181,#183,#221,.T.);
#148=EDGE_CURVE('',#171,#192,#222,.T.);
#149=EDGE_CURVE('',#193,#192,#223,.T.);
#150=EDGE_CURVE('',#193,#168,#224,.T.);
#151=EDGE_CURVE('',#194,#192,#225,.T.);
#152=EDGE_CURVE('',#195,#194,#226,.T.);
#153=EDGE_CURVE('',#193,#195,#227,.T.);
#154=EDGE_CURVE('',#196,#194,#228,.T.);
#155=EDGE_CURVE('',#197,#196,#229,.T.);
#156=EDGE_CURVE('',#195,#197,#230,.T.);
#157=EDGE_CURVE('',#198,#199,#231,.T.);
#158=EDGE_CURVE('',#198,#197,#232,.T.);
#159=EDGE_CURVE('',#196,#199,#233,.T.);
#160=EDGE_CURVE('',#169,#172,#234,.T.);
#161=EDGE_CURVE('',#198,#178,#235,.T.);
#162=EDGE_CURVE('',#199,#170,#236,.T.);
#163=EDGE_CURVE('',#200,#173,#237,.T.);
#164=EDGE_CURVE('',#170,#200,#238,.T.);
#165=EDGE_CURVE('',#201,#179,#239,.T.);
#166=EDGE_CURVE('',#200,#201,#240,.T.);
#167=EDGE_CURVE('',#199,#201,#241,.T.);
#168=VERTEX_POINT('',#524);
#169=VERTEX_POINT('',#525);
#170=VERTEX_POINT('',#527);
#171=VERTEX_POINT('',#529);
#172=VERTEX_POINT('',#533);
#173=VERTEX_POINT('',#534);
#174=VERTEX_POINT('',#536);
#175=VERTEX_POINT('',#538);
#176=VERTEX_POINT('',#540);
#177=VERTEX_POINT('',#542);
#178=VERTEX_POINT('',#544);
#179=VERTEX_POINT('',#546);
#180=VERTEX_POINT('',#550);
#181=VERTEX_POINT('',#552);
#182=VERTEX_POINT('',#556);
#183=VERTEX_POINT('',#558);
#184=VERTEX_POINT('',#562);
#185=VERTEX_POINT('',#564);
#186=VERTEX_POINT('',#567);
#187=VERTEX_POINT('',#569);
#188=VERTEX_POINT('',#572);
#189=VERTEX_POINT('',#574);
#190=VERTEX_POINT('',#577);
#191=VERTEX_POINT('',#579);
#192=VERTEX_POINT('',#586);
#193=VERTEX_POINT('',#588);
#194=VERTEX_POINT('',#592);
#195=VERTEX_POINT('',#594);
#196=VERTEX_POINT('',#598);
#197=VERTEX_POINT('',#600);
#198=VERTEX_POINT('',#604);
#199=VERTEX_POINT('',#605);
#200=VERTEX_POINT('',#615);
#201=VERTEX_POINT('',#619);
#202=LINE('',#523,#242);
#203=LINE('',#526,#243);
#204=LINE('',#528,#244);
#205=LINE('',#530,#245);
#206=LINE('',#532,#246);
#207=LINE('',#535,#247);
#208=LINE('',#537,#248);
#209=LINE('',#539,#249);
#210=LINE('',#541,#250);
#211=LINE('',#543,#251);
#212=LINE('',#545,#252);
#213=LINE('',#547,#253);
#214=LINE('',#549,#254);
#215=LINE('',#551,#255);
#216=LINE('',#553,#256);
#217=LINE('',#555,#257);
#218=LINE('',#557,#258);
#219=LINE('',#559,#259);
#220=LINE('',#581,#260);
#221=LINE('',#582,#261);
#222=LINE('',#585,#262);
#223=LINE('',#587,#263);
#224=LINE('',#589,#264);
#225=LINE('',#591,#265);
#226=LINE('',#593,#266);
#227=LINE('',#595,#267);
#228=LINE('',#597,#268);
#229=LINE('',#599,#269);
#230=LINE('',#601,#270);
#231=LINE('',#603,#271);
#232=LINE('',#606,#272);
#233=LINE('',#607,#273);
#234=LINE('',#609,#274);
#235=LINE('',#610,#275);
#236=LINE('',#612,#276);
#237=LINE('',#614,#277);
#238=LINE('',#616,#278);
#239=LINE('',#618,#279);
#240=LINE('',#620,#280);
#241=LINE('',#622,#281);
#242=VECTOR('',#427,1.);
#243=VECTOR('',#428,1.);
#244=VECTOR('',#429,1.);
#245=VECTOR('',#430,1.);
#246=VECTOR('',#433,1.);
#247=VECTOR('',#434,1.);
#248=VECTOR('',#435,1.);
#249=VECTOR('',#436,1.);
#250=VECTOR('',#437,1.);
#251=VECTOR('',#438,1.);
#252=VECTOR('',#439,1.);
#253=VECTOR('',#440,1.);
#254=VECTOR('',#443,1.);
#255=VECTOR('',#444,1.);
#256=VECTOR('',#445,1.);
#257=VECTOR('',#448,1.);
#258=VECTOR('',#449,1.);
#259=VECTOR('',#450,1.);
#260=VECTOR('',#477,1.);
#261=VECTOR('',#478,1.);
#262=VECTOR('',#483,1.);
#263=VECTOR('',#484,1.);
#264=VECTOR('',#485,1.);
#265=VECTOR('',#488,1.);
#266=VECTOR('',#489,1.);
#267=VECTOR('',#490,1.);
#268=VECTOR('',#493,1.);
#269=VECTOR('',#494,1.);
#270=VECTOR('',#495,1.);
#271=VECTOR('',#498,1.);
#272=VECTOR('',#499,1.);
#273=VECTOR('',#500,1.);
#274=VECTOR('',#503,1.);
#275=VECTOR('',#504,1.);
#276=VECTOR('',#507,1.);
#277=VECTOR('',#510,1.);
#278=VECTOR('',#511,1.);
#279=VECTOR('',#514,1.);
#280=VECTOR('',#515,1.);
#281=VECTOR('',#518,1.);
#282=EDGE_LOOP('',(#24,#25,#26,#27));
#283=EDGE_LOOP('',(#28,#29,#30,#31,#32,#33,#34,#35));
#284=EDGE_LOOP('',(#36,#37,#38,#39));
#285=EDGE_LOOP('',(#40,#41,#42,#43));
#286=EDGE_LOOP('',(#44));
#287=EDGE_LOOP('',(#45));
#288=EDGE_LOOP('',(#46));
#289=EDGE_LOOP('',(#47));
#290=EDGE_LOOP('',(#48));
#291=EDGE_LOOP('',(#49));
#292=EDGE_LOOP('',(#50));
#293=EDGE_LOOP('',(#51));
#294=EDGE_LOOP('',(#52,#53,#54,#55));
#295=EDGE_LOOP('',(#56,#57,#58,#59));
#296=EDGE_LOOP('',(#60));
#297=EDGE_LOOP('',(#61));
#298=EDGE_LOOP('',(#62));
#299=EDGE_LOOP('',(#63));
#300=EDGE_LOOP('',(#64,#65,#66,#67));
#301=EDGE_LOOP('',(#68,#69,#70,#71));
#302=EDGE_LOOP('',(#72,#73,#74,#75));
#303=EDGE_LOOP('',(#76,#77,#78,#79));
#304=EDGE_LOOP('',(#80,#81,#82,#83,#84,#85,#86,#87,#88,#89,#90,#91));
#305=EDGE_LOOP('',(#92));
#306=EDGE_LOOP('',(#93));
#307=EDGE_LOOP('',(#94));
#308=EDGE_LOOP('',(#95));
#309=EDGE_LOOP('',(#96,#97,#98,#99,#100,#101));
#310=EDGE_LOOP('',(#102,#103,#104,#105,#106));
#311=EDGE_LOOP('',(#107,#108,#109,#110));
#312=EDGE_LOOP('',(#111,#112,#113,#114,#115));
#313=EDGE_LOOP('',(#116,#117,#118,#119));
#314=FACE_BOUND('',#282,.T.);
#315=FACE_BOUND('',#283,.T.);
#316=FACE_BOUND('',#284,.T.);
#317=FACE_BOUND('',#285,.T.);
#318=FACE_BOUND('',#286,.T.);
#319=FACE_BOUND('',#287,.T.);
#320=FACE_BOUND('',#288,.T.);
#321=FACE_BOUND('',#289,.T.);
#322=FACE_BOUND('',#290,.T.);
#323=FACE_BOUND('',#291,.T.);
#324=FACE_BOUND('',#292,.T.);
#325=FACE_BOUND('',#293,.T.);
#326=FACE_BOUND('',#294,.T.);
#327=FACE_BOUND('',#295,.T.);
#328=FACE_BOUND('',#296,.T.);
#329=FACE_BOUND('',#297,.T.);
#330=FACE_BOUND('',#298,.T.);
#331=FACE_BOUND('',#299,.T.);
#332=FACE_BOUND('',#300,.T.);
#333=FACE_BOUND('',#301,.T.);
#334=FACE_BOUND('',#302,.T.);
#335=FACE_BOUND('',#303,.T.);
#336=FACE_BOUND('',#304,.T.);
#337=FACE_BOUND('',#305,.T.);
#338=FACE_BOUND('',#306,.T.);
#339=FACE_BOUND('',#307,.T.);
#340=FACE_BOUND('',#308,.T.);
#341=FACE_BOUND('',#309,.T.);
#342=FACE_BOUND('',#310,.T.);
#343=FACE_BOUND('',#311,.T.);
#344=FACE_BOUND('',#312,.T.);
#345=FACE_BOUND('',#313,.T.);
#346=PLANE('',#395);
#347=PLANE('',#396);
#348=PLANE('',#397);
#349=PLANE('',#398);
#350=PLANE('',#411);
#351=PLANE('',#412);
#352=PLANE('',#413);
#353=PLANE('',#414);
#354=PLANE('',#415);
#355=PLANE('',#416);
#356=PLANE('',#417);
#357=PLANE('',#418);
#358=PLANE('',#419);
#359=PLANE('',#420);
#360=PLANE('',#421);
#361=PLANE('',#422);
#362=ADVANCED_FACE('',(#314),#346,.T.);
#363=ADVANCED_FACE('',(#315),#347,.F.);
#364=ADVANCED_FACE('',(#316),#348,.F.);
#365=ADVANCED_FACE('',(#317),#349,.T.);
#366=ADVANCED_FACE('',(#318,#319),#20,.F.);
#367=ADVANCED_FACE('',(#320,#321),#21,.F.);
#368=ADVANCED_FACE('',(#322,#323),#22,.F.);
#369=ADVANCED_FACE('',(#324,#325),#23,.F.);
#370=ADVANCED_FACE('',(#326),#350,.T.);
#371=ADVANCED_FACE('',(#327,#328,#329,#330,#331),#351,.F.);
#372=ADVANCED_FACE('',(#332),#352,.T.);
#373=ADVANCED_FACE('',(#333),#353,.F.);
#374=ADVANCED_FACE('',(#334),#354,.F.);
#375=ADVANCED_FACE('',(#335),#355,.T.);
#376=ADVANCED_FACE('',(#336,#337,#338,#339,#340),#356,.T.);
#377=ADVANCED_FACE('',(#341),#357,.T.);
#378=ADVANCED_FACE('',(#342),#358,.F.);
#379=ADVANCED_FACE('',(#343),#359,.F.);
#380=ADVANCED_FACE('',(#344),#360,.T.);
#381=ADVANCED_FACE('',(#345),#361,.F.);
#382=CLOSED_SHELL('',(#362,#363,#364,#365,#366,#367,#368,#369,#370,#371,
#372,#373,#374,#375,#376,#377,#378,#379,#380,#381));
#383=STYLED_ITEM('',(#384),#391);
#384=PRESENTATION_STYLE_ASSIGNMENT((#385));
#385=SURFACE_STYLE_USAGE(.BOTH.,#386);
#386=SURFACE_SIDE_STYLE('',(#387));
#387=SURFACE_STYLE_FILL_AREA(#388);
#388=FILL_AREA_STYLE('',(#389));
#389=FILL_AREA_STYLE_COLOUR('',#390);
#390=COLOUR_RGB('',0.615686274509804,0.811764705882353,0.929411764705882);
#391=MANIFOLD_SOLID_BREP('Part 1',#382);
#392=SHAPE_DEFINITION_REPRESENTATION(#630,#393);
#393=SHAPE_REPRESENTATION('Part 1',(#394),#625);
#394=AXIS2_PLACEMENT_3D('',#521,#423,#424);
#395=AXIS2_PLACEMENT_3D('',#522,#425,#426);
#396=AXIS2_PLACEMENT_3D('',#531,#431,#432);
#397=AXIS2_PLACEMENT_3D('',#548,#441,#442);
#398=AXIS2_PLACEMENT_3D('',#554,#446,#447);
#399=AXIS2_PLACEMENT_3D('',#560,#451,#452);
#400=AXIS2_PLACEMENT_3D('',#561,#453,#454);
#401=AXIS2_PLACEMENT_3D('',#563,#455,#456);
#402=AXIS2_PLACEMENT_3D('',#565,#457,#458);
#403=AXIS2_PLACEMENT_3D('',#566,#459,#460);
#404=AXIS2_PLACEMENT_3D('',#568,#461,#462);
#405=AXIS2_PLACEMENT_3D('',#570,#463,#464);
#406=AXIS2_PLACEMENT_3D('',#571,#465,#466);
#407=AXIS2_PLACEMENT_3D('',#573,#467,#468);
#408=AXIS2_PLACEMENT_3D('',#575,#469,#470);
#409=AXIS2_PLACEMENT_3D('',#576,#471,#472);
#410=AXIS2_PLACEMENT_3D('',#578,#473,#474);
#411=AXIS2_PLACEMENT_3D('',#580,#475,#476);
#412=AXIS2_PLACEMENT_3D('',#583,#479,#480);
#413=AXIS2_PLACEMENT_3D('',#584,#481,#482);
#414=AXIS2_PLACEMENT_3D('',#590,#486,#487);
#415=AXIS2_PLACEMENT_3D('',#596,#491,#492);
#416=AXIS2_PLACEMENT_3D('',#602,#496,#497);
#417=AXIS2_PLACEMENT_3D('',#608,#501,#502);
#418=AXIS2_PLACEMENT_3D('',#611,#505,#506);
#419=AXIS2_PLACEMENT_3D('',#613,#508,#509);
#420=AXIS2_PLACEMENT_3D('',#617,#512,#513);
#421=AXIS2_PLACEMENT_3D('',#621,#516,#517);
#422=AXIS2_PLACEMENT_3D('',#623,#519,#520);
#423=DIRECTION('',(0.,0.,1.));
#424=DIRECTION('',(1.,0.,0.));
#425=DIRECTION('',(0.,1.,0.));
#426=DIRECTION('',(0.,0.,1.));
#427=DIRECTION('',(1.,0.,0.));
#428=DIRECTION('',(0.,0.,-1.));
#429=DIRECTION('',(-1.,0.,0.));
#430=DIRECTION('',(0.,0.,-1.));
#431=DIRECTION('',(0.,1.,0.));
#432=DIRECTION('',(0.,0.,1.));
#433=DIRECTION('',(0.,0.,-1.));
#434=DIRECTION('',(1.,0.,0.));
#435=DIRECTION('',(0.,0.,-1.));
#436=DIRECTION('',(1.,0.,0.));
#437=DIRECTION('',(0.,0.,-1.));
#438=DIRECTION('',(1.,0.,0.));
#439=DIRECTION('',(0.,0.,-1.));
#440=DIRECTION('',(1.,0.,1.83407327576381E-16));
#441=DIRECTION('',(1.,0.,0.));
#442=DIRECTION('',(0.,0.,-1.));
#443=DIRECTION('',(0.,-1.,0.));
#444=DIRECTION('',(0.,-1.,0.));
#445=DIRECTION('',(0.,0.,-1.));
#446=DIRECTION('',(1.,0.,0.));
#447=DIRECTION('',(0.,0.,-1.));
#448=DIRECTION('',(0.,-1.,0.));
#449=DIRECTION('',(0.,0.,-1.));
#450=DIRECTION('',(0.,-1.,0.));
#451=DIRECTION('',(0.,0.,-1.));
#452=DIRECTION('',(-1.,0.,0.));
#453=DIRECTION('',(0.,0.,1.));
#454=DIRECTION('',(1.,0.,0.));
#455=DIRECTION('',(0.,0.,1.));
#456=DIRECTION('',(1.,0.,0.));
#457=DIRECTION('',(0.,0.,-1.));
#458=DIRECTION('',(-1.,0.,0.));
#459=DIRECTION('',(0.,0.,1.));
#460=DIRECTION('',(1.,0.,0.));
#461=DIRECTION('',(0.,0.,1.));
#462=DIRECTION('',(1.,0.,0.));
#463=DIRECTION('',(0.,0.,-1.));
#464=DIRECTION('',(-1.,0.,0.));
#465=DIRECTION('',(0.,0.,1.));
#466=DIRECTION('',(1.,0.,0.));
#467=DIRECTION('',(0.,0.,1.));
#468=DIRECTION('',(1.,0.,0.));
#469=DIRECTION('',(0.,0.,-1.));
#470=DIRECTION('',(-1.,0.,0.));
#471=DIRECTION('',(0.,0.,1.));
#472=DIRECTION('',(1.,0.,0.));
#473=DIRECTION('',(0.,0.,1.));
#474=DIRECTION('',(1.,0.,0.));
#475=DIRECTION('',(0.,1.,0.));
#476=DIRECTION('',(0.,0.,1.));
#477=DIRECTION('',(1.,0.,0.));
#478=DIRECTION('',(1.,0.,0.));
#479=DIRECTION('',(0.,0.,1.));
#480=DIRECTION('',(1.,0.,0.));
#481=DIRECTION('',(1.,5.97974310919272E-17,0.));
#482=DIRECTION('',(-5.97974310919272E-17,1.,0.));
#483=DIRECTION('',(-5.97974310919272E-17,1.,0.));
#484=DIRECTION('',(0.,0.,-1.));
#485=DIRECTION('',(5.97974310919272E-17,-1.,0.));
#486=DIRECTION('',(0.,1.,0.));
#487=DIRECTION('',(0.,0.,1.));
#488=DIRECTION('',(-1.,0.,0.));
#489=DIRECTION('',(0.,0.,-1.));
#490=DIRECTION('',(1.,0.,0.));
#491=DIRECTION('',(1.,5.97974310919272E-17,0.));
#492=DIRECTION('',(-5.97974310919272E-17,1.,0.));
#493=DIRECTION('',(-5.97974310919272E-17,1.,0.));
#494=DIRECTION('',(0.,0.,-1.));
#495=DIRECTION('',(5.97974310919272E-17,-1.,0.));
#496=DIRECTION('',(0.,1.,0.));
#497=DIRECTION('',(0.,0.,1.));
#498=DIRECTION('',(0.,0.,-1.));
#499=DIRECTION('',(1.,0.,0.));
#500=DIRECTION('',(-1.,0.,0.));
#501=DIRECTION('',(0.,0.,1.));
#502=DIRECTION('',(1.,0.,0.));
#503=DIRECTION('',(0.,-1.,0.));
#504=DIRECTION('',(0.,-1.,0.));
#505=DIRECTION('',(0.,0.,1.));
#506=DIRECTION('',(1.,0.,0.));
#507=DIRECTION('',(-1.,0.,0.));
#508=DIRECTION('',(-1.,0.,0.));
#509=DIRECTION('',(0.,0.,1.));
#510=DIRECTION('',(0.,-1.,0.));
#511=DIRECTION('',(0.,0.,-1.));
#512=DIRECTION('',(1.83407327576381E-16,0.,-1.));
#513=DIRECTION('',(-1.,0.,-1.83407327576381E-16));
#514=DIRECTION('',(0.,-1.,0.));
#515=DIRECTION('',(1.,0.,1.83407327576381E-16));
#516=DIRECTION('',(-1.,0.,0.));
#517=DIRECTION('',(0.,0.,1.));
#518=DIRECTION('',(0.,0.,-1.));
#519=DIRECTION('',(0.,1.,0.));
#520=DIRECTION('',(0.,0.,1.));
#521=CARTESIAN_POINT('',(0.,0.,0.));
#522=CARTESIAN_POINT('',(0.00214386264532805,-0.0216815269804001,0.013));
#523=CARTESIAN_POINT('',(0.00214386264532805,-0.0216815269804001,0.013));
#524=CARTESIAN_POINT('',(-0.0179892606536048,-0.0216815269804001,0.013));
#525=CARTESIAN_POINT('',(0.0060107393463952,-0.0216815269804001,0.013));
#526=CARTESIAN_POINT('',(0.0060107393463952,-0.0216815269804001,0.00661710613084169));
#527=CARTESIAN_POINT('',(0.0060107393463952,-0.0216815269804001,0.003));
#528=CARTESIAN_POINT('',(0.00214386264532804,-0.0216815269804001,0.003));
#529=CARTESIAN_POINT('',(-0.0179892606536048,-0.0216815269804001,0.003));
#530=CARTESIAN_POINT('',(-0.0179892606536048,-0.0216815269804001,0.013));
#531=CARTESIAN_POINT('',(0.00214386264532805,-0.0316815269804001,0.003));
#532=CARTESIAN_POINT('',(0.0060107393463952,-0.0316815269804001,0.00661710613084169));
#533=CARTESIAN_POINT('',(0.0060107393463952,-0.0316815269804001,0.013));
#534=CARTESIAN_POINT('',(0.0060107393463952,-0.0316815269804001,0.000234212261683379));
#535=CARTESIAN_POINT('',(0.00214386264532805,-0.0316815269804001,0.013));
#536=CARTESIAN_POINT('',(-0.0279892606536048,-0.0316815269804001,0.013));
#537=CARTESIAN_POINT('',(-0.0279892606536048,-0.0316815269804001,0.003));
#538=CARTESIAN_POINT('',(-0.0279892606536048,-0.0316815269804001,0.));
#539=CARTESIAN_POINT('',(0.00214386264532805,-0.0316815269804001,0.));
#540=CARTESIAN_POINT('',(0.0322769859442609,-0.0316815269804001,0.));
#541=CARTESIAN_POINT('',(0.0322769859442609,-0.0316815269804001,0.003));
#542=CARTESIAN_POINT('',(0.0322769859442609,-0.0316815269804001,0.013));
#543=CARTESIAN_POINT('',(0.00214386264532805,-0.0316815269804001,0.013));
#544=CARTESIAN_POINT('',(0.0182769859442609,-0.0316815269804001,0.013));
#545=CARTESIAN_POINT('',(0.0182769859442609,-0.0316815269804001,0.00661710613084169));
#546=CARTESIAN_POINT('',(0.0182769859442609,-0.0316815269804001,0.000234212261683382));
#547=CARTESIAN_POINT('',(0.012143862645328,-0.0316815269804001,0.00023421226168338));
#548=CARTESIAN_POINT('',(-0.0279892606536048,0.00732847301959991,0.003));
#549=CARTESIAN_POINT('',(-0.0279892606536048,0.00732847301959991,0.));
#550=CARTESIAN_POINT('',(-0.0279892606536048,0.0463384730195999,0.));
#551=CARTESIAN_POINT('',(-0.0279892606536048,0.00732847301959991,0.013));
#552=CARTESIAN_POINT('',(-0.0279892606536048,0.0463384730195999,0.013));
#553=CARTESIAN_POINT('',(-0.0279892606536048,0.0463384730195999,0.003));
#554=CARTESIAN_POINT('',(0.0322769859442609,0.00732847301959991,0.003));
#555=CARTESIAN_POINT('',(0.0322769859442609,0.00732847301959991,0.));
#556=CARTESIAN_POINT('',(0.0322769859442609,0.0463384730195999,0.));
#557=CARTESIAN_POINT('',(0.0322769859442609,0.0463384730195999,0.003));
#558=CARTESIAN_POINT('',(0.0322769859442609,0.0463384730195999,0.013));
#559=CARTESIAN_POINT('',(0.0322769859442609,0.00732847301959991,0.013));
#560=CARTESIAN_POINT('',(-0.0229892606536048,0.0413384730195999,0.003));
#561=CARTESIAN_POINT('',(-0.0229892606536048,0.0413384730195999,0.));
#562=CARTESIAN_POINT('',(-0.0215392606536048,0.0413384730195999,0.));
#563=CARTESIAN_POINT('',(-0.0229892606536048,0.0413384730195999,0.013));
#564=CARTESIAN_POINT('',(-0.0215392606536048,0.0413384730195999,0.013));
#565=CARTESIAN_POINT('',(0.0272769859442609,0.0413384730195999,0.003));
#566=CARTESIAN_POINT('',(0.0272769859442609,0.0413384730195999,0.));
#567=CARTESIAN_POINT('',(0.0287269859442609,0.0413384730195999,0.));
#568=CARTESIAN_POINT('',(0.0272769859442609,0.0413384730195999,0.013));
#569=CARTESIAN_POINT('',(0.0287269859442609,0.0413384730195999,0.013));
#570=CARTESIAN_POINT('',(0.0272769859442609,-0.0266815269804001,0.003));
#571=CARTESIAN_POINT('',(0.0272769859442609,-0.0266815269804001,0.));
#572=CARTESIAN_POINT('',(0.0287269859442609,-0.0266815269804001,0.));
#573=CARTESIAN_POINT('',(0.0272769859442609,-0.0266815269804001,0.013));
#574=CARTESIAN_POINT('',(0.0287269859442609,-0.0266815269804001,0.013));
#575=CARTESIAN_POINT('',(-0.0229892606536048,-0.0266815269804001,0.003));
#576=CARTESIAN_POINT('',(-0.0229892606536048,-0.0266815269804001,0.));
#577=CARTESIAN_POINT('',(-0.0215392606536048,-0.0266815269804001,0.));
#578=CARTESIAN_POINT('',(-0.0229892606536048,-0.0266815269804001,0.013));
#579=CARTESIAN_POINT('',(-0.0215392606536048,-0.0266815269804001,0.013));
#580=CARTESIAN_POINT('',(0.00214386264532804,0.0463384730195999,0.003));
#581=CARTESIAN_POINT('',(0.00214386264532804,0.0463384730195999,0.));
#582=CARTESIAN_POINT('',(0.00214386264532804,0.0463384730195999,0.013));
#583=CARTESIAN_POINT('',(0.00214386264532804,0.00732847301959991,0.));
#584=CARTESIAN_POINT('',(-0.0179892606536048,0.00732847301959991,0.013));
#585=CARTESIAN_POINT('',(-0.0179892606536048,0.00732847301959991,0.003));
#586=CARTESIAN_POINT('',(-0.0179892606536048,0.0363384730195999,0.003));
#587=CARTESIAN_POINT('',(-0.0179892606536048,0.0363384730195999,0.013));
#588=CARTESIAN_POINT('',(-0.0179892606536048,0.0363384730195999,0.013));
#589=CARTESIAN_POINT('',(-0.0179892606536048,0.00732847301959991,0.013));
#590=CARTESIAN_POINT('',(0.00214386264532805,0.0363384730195999,0.013));
#591=CARTESIAN_POINT('',(0.00214386264532804,0.0363384730195999,0.003));
#592=CARTESIAN_POINT('',(0.0222769859442609,0.0363384730195999,0.003));
#593=CARTESIAN_POINT('',(0.0222769859442609,0.0363384730195999,0.013));
#594=CARTESIAN_POINT('',(0.0222769859442609,0.0363384730195999,0.013));
#595=CARTESIAN_POINT('',(0.00214386264532805,0.0363384730195999,0.013));
#596=CARTESIAN_POINT('',(0.0222769859442609,0.00732847301959991,0.013));
#597=CARTESIAN_POINT('',(0.0222769859442609,0.00732847301959992,0.003));
#598=CARTESIAN_POINT('',(0.0222769859442609,-0.0216815269804001,0.003));
#599=CARTESIAN_POINT('',(0.0222769859442609,-0.0216815269804001,0.013));
#600=CARTESIAN_POINT('',(0.0222769859442609,-0.0216815269804001,0.013));
#601=CARTESIAN_POINT('',(0.0222769859442609,0.00732847301959991,0.013));
#602=CARTESIAN_POINT('',(0.00214386264532805,-0.0216815269804001,0.013));
#603=CARTESIAN_POINT('',(0.0182769859442609,-0.0216815269804001,0.00661710613084169));
#604=CARTESIAN_POINT('',(0.0182769859442609,-0.0216815269804001,0.013));
#605=CARTESIAN_POINT('',(0.0182769859442609,-0.0216815269804001,0.003));
#606=CARTESIAN_POINT('',(0.00214386264532805,-0.0216815269804001,0.013));
#607=CARTESIAN_POINT('',(0.00214386264532804,-0.0216815269804001,0.003));
#608=CARTESIAN_POINT('',(0.00214386264532804,0.00732847301959991,0.013));
#609=CARTESIAN_POINT('',(0.0060107393463952,-0.0216795269804001,0.013));
#610=CARTESIAN_POINT('',(0.0182769859442609,-0.0216795269804001,0.013));
#611=CARTESIAN_POINT('',(0.00214386264532804,0.00732847301959991,0.003));
#612=CARTESIAN_POINT('',(0.00214386264532804,-0.0216815269804001,0.003));
#613=CARTESIAN_POINT('',(0.0060107393463952,-0.0216795269804001,0.00661710613084169));
#614=CARTESIAN_POINT('',(0.0060107393463952,-0.0216795269804001,0.000234212261683379));
#615=CARTESIAN_POINT('',(0.0060107393463952,-0.0216815269804001,0.000234212261683379));
#616=CARTESIAN_POINT('',(0.0060107393463952,-0.0216815269804001,0.00661710613084169));
#617=CARTESIAN_POINT('',(0.012143862645328,-0.0216795269804001,0.00023421226168338));
#618=CARTESIAN_POINT('',(0.0182769859442609,-0.0216795269804001,0.000234212261683382));
#619=CARTESIAN_POINT('',(0.0182769859442609,-0.0216815269804001,0.000234212261683382));
#620=CARTESIAN_POINT('',(0.012143862645328,-0.0216815269804001,0.00023421226168338));
#621=CARTESIAN_POINT('',(0.0182769859442609,-0.0216795269804001,0.00661710613084169));
#622=CARTESIAN_POINT('',(0.0182769859442609,-0.0216815269804001,0.00661710613084169));
#623=CARTESIAN_POINT('',(0.00214386264532805,-0.0216815269804001,0.013));
#624=MECHANICAL_DESIGN_GEOMETRIC_PRESENTATION_REPRESENTATION('',(#383),
#625);
#625=(
GEOMETRIC_REPRESENTATION_CONTEXT(3)
GLOBAL_UNCERTAINTY_ASSIGNED_CONTEXT((#626))
GLOBAL_UNIT_ASSIGNED_CONTEXT((#629,#628,#627))
REPRESENTATION_CONTEXT('Part 1','TOP_LEVEL_ASSEMBLY_PART')
);
#626=UNCERTAINTY_MEASURE_WITH_UNIT(LENGTH_MEASURE(1.E-8),#629,
'DISTANCE_ACCURACY_VALUE','Maximum Tolerance applied to model');
#627=(
NAMED_UNIT(*)
SI_UNIT($,.STERADIAN.)
SOLID_ANGLE_UNIT()
);
#628=(
NAMED_UNIT(*)
PLANE_ANGLE_UNIT()
SI_UNIT($,.RADIAN.)
);
#629=(
LENGTH_UNIT()
NAMED_UNIT(*)
SI_UNIT($,.METRE.)
);
#630=PRODUCT_DEFINITION_SHAPE('','',#631);
#631=PRODUCT_DEFINITION('','',#633,#632);
#632=PRODUCT_DEFINITION_CONTEXT('',#639,'design');
#633=PRODUCT_DEFINITION_FORMATION_WITH_SPECIFIED_SOURCE('','',#635,
 .NOT_KNOWN.);
#634=PRODUCT_RELATED_PRODUCT_CATEGORY('','',(#635));
#635=PRODUCT('Part 1','Part 1','Part 1',(#637));
#636=PRODUCT_CATEGORY('','');
#637=PRODUCT_CONTEXT('',#639,'mechanical');
#638=APPLICATION_PROTOCOL_DEFINITION('international standard',
'ap242_managed_model_based_3d_engineering',2020,#639);
#639=APPLICATION_CONTEXT('managed model based 3d engineering');
ENDSEC;
END-ISO-10303-21;
