ISO-10303-21;
HEADER;
/* Generated by software containing ST-Developer
 * from STEP Tools, Inc. (www.steptools.com) 
 */
/* OPTION: using custom renumber hook */

FILE_DESCRIPTION(
/* description */ ('STEP AP242 Edition 2',
'CAx-IF Rec.Pracs.---Representation and Presentation of Product Manufa
cturing Information (PMI)---4.0---2014-10-13',
'CAx-IF Rec.Pracs.---3D Tessellated Geometry---0.4---2014-09-14','2;1',
'CAx-IF Rec.Pracs.---User Defined Attributes---1.5---2016-08-15'),
/* implementation_level */ '2;1');

FILE_NAME(
/* name */ 'Part Studio 1 - Part 2',
/* time_stamp */ '2026-08-07T23:20:52Z',
/* author */ (''),
/* organization */ (''),
/* preprocessor_version */ 'ST-DEVELOPER v20',
/* originating_system */ 'ONSHAPE BY PTC INC, 1.219',
/* authorisation */ '  ');

FILE_SCHEMA (('AP242_MANAGED_MODEL_BASED_3D_ENGINEERING_MIM_LF { 1 0 10303 442 3 1 4 }'));
ENDSEC;

DATA;
#10=SHAPE_REPRESENTATION_RELATIONSHIP('','',#775,#11);
#11=ADVANCED_BREP_SHAPE_REPRESENTATION('',(#773),#1277);
#12=CIRCLE('',#784,0.0005);
#13=CIRCLE('',#785,0.0005);
#14=CIRCLE('',#788,0.0005);
#15=CIRCLE('',#789,0.0005);
#16=CIRCLE('',#792,0.0005);
#17=CIRCLE('',#793,0.0005);
#18=CIRCLE('',#796,0.0005);
#19=CIRCLE('',#797,0.0005);
#20=CIRCLE('',#799,0.0005);
#21=CIRCLE('',#800,0.0005);
#22=CIRCLE('',#803,0.0005);
#23=CIRCLE('',#804,0.0005);
#24=CIRCLE('',#807,0.0005);
#25=CIRCLE('',#808,0.0005);
#26=CIRCLE('',#811,0.0005);
#27=CIRCLE('',#812,0.0005);
#28=CIRCLE('',#814,0.0005);
#29=CIRCLE('',#815,0.0005);
#30=CIRCLE('',#818,0.0005);
#31=CIRCLE('',#819,0.0005);
#32=CIRCLE('',#822,0.0005);
#33=CIRCLE('',#823,0.0005);
#34=CIRCLE('',#826,0.0005);
#35=CIRCLE('',#827,0.0005);
#36=CIRCLE('',#829,0.00145);
#37=CIRCLE('',#830,0.00145);
#38=CIRCLE('',#832,0.00145);
#39=CIRCLE('',#833,0.00145);
#40=CIRCLE('',#835,0.00145);
#41=CIRCLE('',#836,0.00145);
#42=CIRCLE('',#838,0.00145);
#43=CIRCLE('',#839,0.00145);
#44=CYLINDRICAL_SURFACE('',#783,0.0005);
#45=CYLINDRICAL_SURFACE('',#787,0.0005);
#46=CYLINDRICAL_SURFACE('',#791,0.0005);
#47=CYLINDRICAL_SURFACE('',#795,0.0005);
#48=CYLINDRICAL_SURFACE('',#798,0.0005);
#49=CYLINDRICAL_SURFACE('',#802,0.0005);
#50=CYLINDRICAL_SURFACE('',#806,0.0005);
#51=CYLINDRICAL_SURFACE('',#810,0.0005);
#52=CYLINDRICAL_SURFACE('',#813,0.0005);
#53=CYLINDRICAL_SURFACE('',#817,0.0005);
#54=CYLINDRICAL_SURFACE('',#821,0.0005);
#55=CYLINDRICAL_SURFACE('',#825,0.0005);
#56=CYLINDRICAL_SURFACE('',#828,0.00145);
#57=CYLINDRICAL_SURFACE('',#831,0.00145);
#58=CYLINDRICAL_SURFACE('',#834,0.00145);
#59=CYLINDRICAL_SURFACE('',#837,0.00145);
#60=ORIENTED_EDGE('',*,*,#268,.F.);
#61=ORIENTED_EDGE('',*,*,#269,.F.);
#62=ORIENTED_EDGE('',*,*,#270,.T.);
#63=ORIENTED_EDGE('',*,*,#271,.T.);
#64=ORIENTED_EDGE('',*,*,#272,.T.);
#65=ORIENTED_EDGE('',*,*,#273,.F.);
#66=ORIENTED_EDGE('',*,*,#274,.F.);
#67=ORIENTED_EDGE('',*,*,#269,.T.);
#68=ORIENTED_EDGE('',*,*,#275,.T.);
#69=ORIENTED_EDGE('',*,*,#276,.F.);
#70=ORIENTED_EDGE('',*,*,#277,.F.);
#71=ORIENTED_EDGE('',*,*,#273,.T.);
#72=ORIENTED_EDGE('',*,*,#278,.F.);
#73=ORIENTED_EDGE('',*,*,#279,.F.);
#74=ORIENTED_EDGE('',*,*,#280,.T.);
#75=ORIENTED_EDGE('',*,*,#281,.T.);
#76=ORIENTED_EDGE('',*,*,#282,.T.);
#77=ORIENTED_EDGE('',*,*,#283,.F.);
#78=ORIENTED_EDGE('',*,*,#284,.F.);
#79=ORIENTED_EDGE('',*,*,#279,.T.);
#80=ORIENTED_EDGE('',*,*,#285,.T.);
#81=ORIENTED_EDGE('',*,*,#286,.F.);
#82=ORIENTED_EDGE('',*,*,#287,.F.);
#83=ORIENTED_EDGE('',*,*,#283,.T.);
#84=ORIENTED_EDGE('',*,*,#288,.F.);
#85=ORIENTED_EDGE('',*,*,#289,.F.);
#86=ORIENTED_EDGE('',*,*,#290,.T.);
#87=ORIENTED_EDGE('',*,*,#291,.T.);
#88=ORIENTED_EDGE('',*,*,#292,.T.);
#89=ORIENTED_EDGE('',*,*,#293,.F.);
#90=ORIENTED_EDGE('',*,*,#294,.F.);
#91=ORIENTED_EDGE('',*,*,#289,.T.);
#92=ORIENTED_EDGE('',*,*,#295,.F.);
#93=ORIENTED_EDGE('',*,*,#296,.F.);
#94=ORIENTED_EDGE('',*,*,#297,.T.);
#95=ORIENTED_EDGE('',*,*,#293,.T.);
#96=ORIENTED_EDGE('',*,*,#298,.T.);
#97=ORIENTED_EDGE('',*,*,#299,.F.);
#98=ORIENTED_EDGE('',*,*,#300,.F.);
#99=ORIENTED_EDGE('',*,*,#296,.T.);
#100=ORIENTED_EDGE('',*,*,#301,.F.);
#101=ORIENTED_EDGE('',*,*,#302,.F.);
#102=ORIENTED_EDGE('',*,*,#303,.T.);
#103=ORIENTED_EDGE('',*,*,#299,.T.);
#104=ORIENTED_EDGE('',*,*,#304,.F.);
#105=ORIENTED_EDGE('',*,*,#305,.F.);
#106=ORIENTED_EDGE('',*,*,#306,.T.);
#107=ORIENTED_EDGE('',*,*,#302,.T.);
#108=ORIENTED_EDGE('',*,*,#307,.F.);
#109=ORIENTED_EDGE('',*,*,#308,.F.);
#110=ORIENTED_EDGE('',*,*,#309,.T.);
#111=ORIENTED_EDGE('',*,*,#305,.T.);
#112=ORIENTED_EDGE('',*,*,#310,.F.);
#113=ORIENTED_EDGE('',*,*,#311,.F.);
#114=ORIENTED_EDGE('',*,*,#312,.T.);
#115=ORIENTED_EDGE('',*,*,#313,.T.);
#116=ORIENTED_EDGE('',*,*,#314,.T.);
#117=ORIENTED_EDGE('',*,*,#315,.F.);
#118=ORIENTED_EDGE('',*,*,#316,.F.);
#119=ORIENTED_EDGE('',*,*,#311,.T.);
#120=ORIENTED_EDGE('',*,*,#317,.F.);
#121=ORIENTED_EDGE('',*,*,#318,.F.);
#122=ORIENTED_EDGE('',*,*,#319,.T.);
#123=ORIENTED_EDGE('',*,*,#315,.T.);
#124=ORIENTED_EDGE('',*,*,#320,.T.);
#125=ORIENTED_EDGE('',*,*,#321,.F.);
#126=ORIENTED_EDGE('',*,*,#322,.F.);
#127=ORIENTED_EDGE('',*,*,#318,.T.);
#128=ORIENTED_EDGE('',*,*,#323,.F.);
#129=ORIENTED_EDGE('',*,*,#324,.F.);
#130=ORIENTED_EDGE('',*,*,#325,.T.);
#131=ORIENTED_EDGE('',*,*,#321,.T.);
#132=ORIENTED_EDGE('',*,*,#326,.F.);
#133=ORIENTED_EDGE('',*,*,#327,.F.);
#134=ORIENTED_EDGE('',*,*,#328,.T.);
#135=ORIENTED_EDGE('',*,*,#324,.T.);
#136=ORIENTED_EDGE('',*,*,#329,.F.);
#137=ORIENTED_EDGE('',*,*,#330,.F.);
#138=ORIENTED_EDGE('',*,*,#331,.T.);
#139=ORIENTED_EDGE('',*,*,#327,.T.);
#140=ORIENTED_EDGE('',*,*,#332,.F.);
#141=ORIENTED_EDGE('',*,*,#333,.F.);
#142=ORIENTED_EDGE('',*,*,#334,.T.);
#143=ORIENTED_EDGE('',*,*,#335,.T.);
#144=ORIENTED_EDGE('',*,*,#336,.T.);
#145=ORIENTED_EDGE('',*,*,#337,.F.);
#146=ORIENTED_EDGE('',*,*,#338,.F.);
#147=ORIENTED_EDGE('',*,*,#333,.T.);
#148=ORIENTED_EDGE('',*,*,#339,.F.);
#149=ORIENTED_EDGE('',*,*,#340,.F.);
#150=ORIENTED_EDGE('',*,*,#341,.T.);
#151=ORIENTED_EDGE('',*,*,#337,.T.);
#152=ORIENTED_EDGE('',*,*,#342,.T.);
#153=ORIENTED_EDGE('',*,*,#343,.F.);
#154=ORIENTED_EDGE('',*,*,#344,.F.);
#155=ORIENTED_EDGE('',*,*,#340,.T.);
#156=ORIENTED_EDGE('',*,*,#345,.F.);
#157=ORIENTED_EDGE('',*,*,#346,.F.);
#158=ORIENTED_EDGE('',*,*,#347,.T.);
#159=ORIENTED_EDGE('',*,*,#343,.T.);
#160=ORIENTED_EDGE('',*,*,#348,.F.);
#161=ORIENTED_EDGE('',*,*,#349,.F.);
#162=ORIENTED_EDGE('',*,*,#350,.T.);
#163=ORIENTED_EDGE('',*,*,#346,.T.);
#164=ORIENTED_EDGE('',*,*,#351,.F.);
#165=ORIENTED_EDGE('',*,*,#352,.F.);
#166=ORIENTED_EDGE('',*,*,#353,.T.);
#167=ORIENTED_EDGE('',*,*,#349,.T.);
#168=ORIENTED_EDGE('',*,*,#354,.T.);
#169=ORIENTED_EDGE('',*,*,#355,.F.);
#170=ORIENTED_EDGE('',*,*,#356,.T.);
#171=ORIENTED_EDGE('',*,*,#357,.F.);
#172=ORIENTED_EDGE('',*,*,#358,.T.);
#173=ORIENTED_EDGE('',*,*,#359,.F.);
#174=ORIENTED_EDGE('',*,*,#360,.T.);
#175=ORIENTED_EDGE('',*,*,#361,.F.);
#176=ORIENTED_EDGE('',*,*,#362,.F.);
#177=ORIENTED_EDGE('',*,*,#281,.F.);
#178=ORIENTED_EDGE('',*,*,#363,.T.);
#179=ORIENTED_EDGE('',*,*,#286,.T.);
#180=ORIENTED_EDGE('',*,*,#364,.F.);
#181=ORIENTED_EDGE('',*,*,#291,.F.);
#182=ORIENTED_EDGE('',*,*,#365,.T.);
#183=ORIENTED_EDGE('',*,*,#308,.T.);
#184=ORIENTED_EDGE('',*,*,#366,.F.);
#185=ORIENTED_EDGE('',*,*,#313,.F.);
#186=ORIENTED_EDGE('',*,*,#367,.T.);
#187=ORIENTED_EDGE('',*,*,#330,.T.);
#188=ORIENTED_EDGE('',*,*,#368,.F.);
#189=ORIENTED_EDGE('',*,*,#335,.F.);
#190=ORIENTED_EDGE('',*,*,#369,.T.);
#191=ORIENTED_EDGE('',*,*,#352,.T.);
#192=ORIENTED_EDGE('',*,*,#370,.F.);
#193=ORIENTED_EDGE('',*,*,#271,.F.);
#194=ORIENTED_EDGE('',*,*,#371,.T.);
#195=ORIENTED_EDGE('',*,*,#276,.T.);
#196=ORIENTED_EDGE('',*,*,#334,.F.);
#197=ORIENTED_EDGE('',*,*,#338,.T.);
#198=ORIENTED_EDGE('',*,*,#341,.F.);
#199=ORIENTED_EDGE('',*,*,#344,.T.);
#200=ORIENTED_EDGE('',*,*,#347,.F.);
#201=ORIENTED_EDGE('',*,*,#350,.F.);
#202=ORIENTED_EDGE('',*,*,#353,.F.);
#203=ORIENTED_EDGE('',*,*,#369,.F.);
#204=ORIENTED_EDGE('',*,*,#312,.F.);
#205=ORIENTED_EDGE('',*,*,#316,.T.);
#206=ORIENTED_EDGE('',*,*,#319,.F.);
#207=ORIENTED_EDGE('',*,*,#322,.T.);
#208=ORIENTED_EDGE('',*,*,#325,.F.);
#209=ORIENTED_EDGE('',*,*,#328,.F.);
#210=ORIENTED_EDGE('',*,*,#331,.F.);
#211=ORIENTED_EDGE('',*,*,#367,.F.);
#212=ORIENTED_EDGE('',*,*,#290,.F.);
#213=ORIENTED_EDGE('',*,*,#294,.T.);
#214=ORIENTED_EDGE('',*,*,#297,.F.);
#215=ORIENTED_EDGE('',*,*,#300,.T.);
#216=ORIENTED_EDGE('',*,*,#303,.F.);
#217=ORIENTED_EDGE('',*,*,#306,.F.);
#218=ORIENTED_EDGE('',*,*,#309,.F.);
#219=ORIENTED_EDGE('',*,*,#365,.F.);
#220=ORIENTED_EDGE('',*,*,#280,.F.);
#221=ORIENTED_EDGE('',*,*,#284,.T.);
#222=ORIENTED_EDGE('',*,*,#287,.T.);
#223=ORIENTED_EDGE('',*,*,#363,.F.);
#224=ORIENTED_EDGE('',*,*,#360,.F.);
#225=ORIENTED_EDGE('',*,*,#358,.F.);
#226=ORIENTED_EDGE('',*,*,#356,.F.);
#227=ORIENTED_EDGE('',*,*,#354,.F.);
#228=ORIENTED_EDGE('',*,*,#270,.F.);
#229=ORIENTED_EDGE('',*,*,#274,.T.);
#230=ORIENTED_EDGE('',*,*,#277,.T.);
#231=ORIENTED_EDGE('',*,*,#371,.F.);
#232=ORIENTED_EDGE('',*,*,#332,.T.);
#233=ORIENTED_EDGE('',*,*,#368,.T.);
#234=ORIENTED_EDGE('',*,*,#351,.T.);
#235=ORIENTED_EDGE('',*,*,#348,.T.);
#236=ORIENTED_EDGE('',*,*,#345,.T.);
#237=ORIENTED_EDGE('',*,*,#342,.F.);
#238=ORIENTED_EDGE('',*,*,#339,.T.);
#239=ORIENTED_EDGE('',*,*,#336,.F.);
#240=ORIENTED_EDGE('',*,*,#310,.T.);
#241=ORIENTED_EDGE('',*,*,#366,.T.);
#242=ORIENTED_EDGE('',*,*,#329,.T.);
#243=ORIENTED_EDGE('',*,*,#326,.T.);
#244=ORIENTED_EDGE('',*,*,#323,.T.);
#245=ORIENTED_EDGE('',*,*,#320,.F.);
#246=ORIENTED_EDGE('',*,*,#317,.T.);
#247=ORIENTED_EDGE('',*,*,#314,.F.);
#248=ORIENTED_EDGE('',*,*,#288,.T.);
#249=ORIENTED_EDGE('',*,*,#364,.T.);
#250=ORIENTED_EDGE('',*,*,#307,.T.);
#251=ORIENTED_EDGE('',*,*,#304,.T.);
#252=ORIENTED_EDGE('',*,*,#301,.T.);
#253=ORIENTED_EDGE('',*,*,#298,.F.);
#254=ORIENTED_EDGE('',*,*,#295,.T.);
#255=ORIENTED_EDGE('',*,*,#292,.F.);
#256=ORIENTED_EDGE('',*,*,#278,.T.);
#257=ORIENTED_EDGE('',*,*,#362,.T.);
#258=ORIENTED_EDGE('',*,*,#285,.F.);
#259=ORIENTED_EDGE('',*,*,#282,.F.);
#260=ORIENTED_EDGE('',*,*,#361,.T.);
#261=ORIENTED_EDGE('',*,*,#359,.T.);
#262=ORIENTED_EDGE('',*,*,#357,.T.);
#263=ORIENTED_EDGE('',*,*,#355,.T.);
#264=ORIENTED_EDGE('',*,*,#268,.T.);
#265=ORIENTED_EDGE('',*,*,#370,.T.);
#266=ORIENTED_EDGE('',*,*,#275,.F.);
#267=ORIENTED_EDGE('',*,*,#272,.F.);
#268=EDGE_CURVE('',#372,#373,#444,.T.);
#269=EDGE_CURVE('',#374,#372,#445,.T.);
#270=EDGE_CURVE('',#374,#375,#446,.T.);
#271=EDGE_CURVE('',#375,#373,#447,.T.);
#272=EDGE_CURVE('',#372,#376,#448,.T.);
#273=EDGE_CURVE('',#377,#376,#449,.T.);
#274=EDGE_CURVE('',#374,#377,#450,.T.);
#275=EDGE_CURVE('',#376,#378,#451,.T.);
#276=EDGE_CURVE('',#379,#378,#452,.T.);
#277=EDGE_CURVE('',#377,#379,#453,.T.);
#278=EDGE_CURVE('',#380,#381,#454,.T.);
#279=EDGE_CURVE('',#382,#380,#455,.T.);
#280=EDGE_CURVE('',#382,#383,#456,.T.);
#281=EDGE_CURVE('',#383,#381,#457,.T.);
#282=EDGE_CURVE('',#380,#384,#458,.T.);
#283=EDGE_CURVE('',#385,#384,#459,.T.);
#284=EDGE_CURVE('',#382,#385,#460,.T.);
#285=EDGE_CURVE('',#384,#386,#461,.T.);
#286=EDGE_CURVE('',#387,#386,#462,.T.);
#287=EDGE_CURVE('',#385,#387,#463,.T.);
#288=EDGE_CURVE('',#388,#389,#12,.T.);
#289=EDGE_CURVE('',#390,#388,#464,.T.);
#290=EDGE_CURVE('',#390,#391,#13,.T.);
#291=EDGE_CURVE('',#391,#389,#465,.T.);
#292=EDGE_CURVE('',#388,#392,#466,.T.);
#293=EDGE_CURVE('',#393,#392,#467,.T.);
#294=EDGE_CURVE('',#390,#393,#468,.T.);
#295=EDGE_CURVE('',#394,#392,#14,.T.);
#296=EDGE_CURVE('',#395,#394,#469,.T.);
#297=EDGE_CURVE('',#395,#393,#15,.T.);
#298=EDGE_CURVE('',#394,#396,#470,.T.);
#299=EDGE_CURVE('',#397,#396,#471,.T.);
#300=EDGE_CURVE('',#395,#397,#472,.T.);
#301=EDGE_CURVE('',#398,#396,#16,.T.);
#302=EDGE_CURVE('',#399,#398,#473,.T.);
#303=EDGE_CURVE('',#399,#397,#17,.T.);
#304=EDGE_CURVE('',#400,#398,#474,.T.);
#305=EDGE_CURVE('',#401,#400,#475,.T.);
#306=EDGE_CURVE('',#401,#399,#476,.T.);
#307=EDGE_CURVE('',#402,#400,#18,.T.);
#308=EDGE_CURVE('',#403,#402,#477,.T.);
#309=EDGE_CURVE('',#403,#401,#19,.T.);
#310=EDGE_CURVE('',#404,#405,#20,.T.);
#311=EDGE_CURVE('',#406,#404,#478,.T.);
#312=EDGE_CURVE('',#406,#407,#21,.T.);
#313=EDGE_CURVE('',#407,#405,#479,.T.);
#314=EDGE_CURVE('',#404,#408,#480,.T.);
#315=EDGE_CURVE('',#409,#408,#481,.T.);
#316=EDGE_CURVE('',#406,#409,#482,.T.);
#317=EDGE_CURVE('',#410,#408,#22,.T.);
#318=EDGE_CURVE('',#411,#410,#483,.T.);
#319=EDGE_CURVE('',#411,#409,#23,.T.);
#320=EDGE_CURVE('',#410,#412,#484,.T.);
#321=EDGE_CURVE('',#413,#412,#485,.T.);
#322=EDGE_CURVE('',#411,#413,#486,.T.);
#323=EDGE_CURVE('',#414,#412,#24,.T.);
#324=EDGE_CURVE('',#415,#414,#487,.T.);
#325=EDGE_CURVE('',#415,#413,#25,.T.);
#326=EDGE_CURVE('',#416,#414,#488,.T.);
#327=EDGE_CURVE('',#417,#416,#489,.T.);
#328=EDGE_CURVE('',#417,#415,#490,.T.);
#329=EDGE_CURVE('',#418,#416,#26,.T.);
#330=EDGE_CURVE('',#419,#418,#491,.T.);
#331=EDGE_CURVE('',#419,#417,#27,.T.);
#332=EDGE_CURVE('',#420,#421,#28,.T.);
#333=EDGE_CURVE('',#422,#420,#492,.T.);
#334=EDGE_CURVE('',#422,#423,#29,.T.);
#335=EDGE_CURVE('',#423,#421,#493,.T.);
#336=EDGE_CURVE('',#420,#424,#494,.T.);
#337=EDGE_CURVE('',#425,#424,#495,.T.);
#338=EDGE_CURVE('',#422,#425,#496,.T.);
#339=EDGE_CURVE('',#426,#424,#30,.T.);
#340=EDGE_CURVE('',#427,#426,#497,.T.);
#341=EDGE_CURVE('',#427,#425,#31,.T.);
#342=EDGE_CURVE('',#426,#428,#498,.T.);
#343=EDGE_CURVE('',#429,#428,#499,.T.);
#344=EDGE_CURVE('',#427,#429,#500,.T.);
#345=EDGE_CURVE('',#430,#428,#32,.T.);
#346=EDGE_CURVE('',#431,#430,#501,.T.);
#347=EDGE_CURVE('',#431,#429,#33,.T.);
#348=EDGE_CURVE('',#432,#430,#502,.T.);
#349=EDGE_CURVE('',#433,#432,#503,.T.);
#350=EDGE_CURVE('',#433,#431,#504,.T.);
#351=EDGE_CURVE('',#434,#432,#34,.T.);
#352=EDGE_CURVE('',#435,#434,#505,.T.);
#353=EDGE_CURVE('',#435,#433,#35,.T.);
#354=EDGE_CURVE('',#436,#436,#36,.T.);
#355=EDGE_CURVE('',#437,#437,#37,.T.);
#356=EDGE_CURVE('',#438,#438,#38,.T.);
#357=EDGE_CURVE('',#439,#439,#39,.T.);
#358=EDGE_CURVE('',#440,#440,#40,.T.);
#359=EDGE_CURVE('',#441,#441,#41,.T.);
#360=EDGE_CURVE('',#442,#442,#42,.T.);
#361=EDGE_CURVE('',#443,#443,#43,.T.);
#362=EDGE_CURVE('',#381,#386,#506,.T.);
#363=EDGE_CURVE('',#383,#387,#507,.T.);
#364=EDGE_CURVE('',#389,#402,#508,.T.);
#365=EDGE_CURVE('',#391,#403,#509,.T.);
#366=EDGE_CURVE('',#405,#418,#510,.T.);
#367=EDGE_CURVE('',#407,#419,#511,.T.);
#368=EDGE_CURVE('',#421,#434,#512,.T.);
#369=EDGE_CURVE('',#423,#435,#513,.T.);
#370=EDGE_CURVE('',#373,#378,#514,.T.);
#371=EDGE_CURVE('',#375,#379,#515,.T.);
#372=VERTEX_POINT('',#1064);
#373=VERTEX_POINT('',#1065);
#374=VERTEX_POINT('',#1067);
#375=VERTEX_POINT('',#1069);
#376=VERTEX_POINT('',#1073);
#377=VERTEX_POINT('',#1075);
#378=VERTEX_POINT('',#1079);
#379=VERTEX_POINT('',#1081);
#380=VERTEX_POINT('',#1085);
#381=VERTEX_POINT('',#1086);
#382=VERTEX_POINT('',#1088);
#383=VERTEX_POINT('',#1090);
#384=VERTEX_POINT('',#1094);
#385=VERTEX_POINT('',#1096);
#386=VERTEX_POINT('',#1100);
#387=VERTEX_POINT('',#1102);
#388=VERTEX_POINT('',#1106);
#389=VERTEX_POINT('',#1107);
#390=VERTEX_POINT('',#1109);
#391=VERTEX_POINT('',#1111);
#392=VERTEX_POINT('',#1115);
#393=VERTEX_POINT('',#1117);
#394=VERTEX_POINT('',#1121);
#395=VERTEX_POINT('',#1123);
#396=VERTEX_POINT('',#1127);
#397=VERTEX_POINT('',#1129);
#398=VERTEX_POINT('',#1133);
#399=VERTEX_POINT('',#1135);
#400=VERTEX_POINT('',#1139);
#401=VERTEX_POINT('',#1141);
#402=VERTEX_POINT('',#1145);
#403=VERTEX_POINT('',#1147);
#404=VERTEX_POINT('',#1151);
#405=VERTEX_POINT('',#1152);
#406=VERTEX_POINT('',#1154);
#407=VERTEX_POINT('',#1156);
#408=VERTEX_POINT('',#1160);
#409=VERTEX_POINT('',#1162);
#410=VERTEX_POINT('',#1166);
#411=VERTEX_POINT('',#1168);
#412=VERTEX_POINT('',#1172);
#413=VERTEX_POINT('',#1174);
#414=VERTEX_POINT('',#1178);
#415=VERTEX_POINT('',#1180);
#416=VERTEX_POINT('',#1184);
#417=VERTEX_POINT('',#1186);
#418=VERTEX_POINT('',#1190);
#419=VERTEX_POINT('',#1192);
#420=VERTEX_POINT('',#1196);
#421=VERTEX_POINT('',#1197);
#422=VERTEX_POINT('',#1199);
#423=VERTEX_POINT('',#1201);
#424=VERTEX_POINT('',#1205);
#425=VERTEX_POINT('',#1207);
#426=VERTEX_POINT('',#1211);
#427=VERTEX_POINT('',#1213);
#428=VERTEX_POINT('',#1217);
#429=VERTEX_POINT('',#1219);
#430=VERTEX_POINT('',#1223);
#431=VERTEX_POINT('',#1225);
#432=VERTEX_POINT('',#1229);
#433=VERTEX_POINT('',#1231);
#434=VERTEX_POINT('',#1235);
#435=VERTEX_POINT('',#1237);
#436=VERTEX_POINT('',#1241);
#437=VERTEX_POINT('',#1243);
#438=VERTEX_POINT('',#1246);
#439=VERTEX_POINT('',#1248);
#440=VERTEX_POINT('',#1251);
#441=VERTEX_POINT('',#1253);
#442=VERTEX_POINT('',#1256);
#443=VERTEX_POINT('',#1258);
#444=LINE('',#1063,#516);
#445=LINE('',#1066,#517);
#446=LINE('',#1068,#518);
#447=LINE('',#1070,#519);
#448=LINE('',#1072,#520);
#449=LINE('',#1074,#521);
#450=LINE('',#1076,#522);
#451=LINE('',#1078,#523);
#452=LINE('',#1080,#524);
#453=LINE('',#1082,#525);
#454=LINE('',#1084,#526);
#455=LINE('',#1087,#527);
#456=LINE('',#1089,#528);
#457=LINE('',#1091,#529);
#458=LINE('',#1093,#530);
#459=LINE('',#1095,#531);
#460=LINE('',#1097,#532);
#461=LINE('',#1099,#533);
#462=LINE('',#1101,#534);
#463=LINE('',#1103,#535);
#464=LINE('',#1108,#536);
#465=LINE('',#1112,#537);
#466=LINE('',#1114,#538);
#467=LINE('',#1116,#539);
#468=LINE('',#1118,#540);
#469=LINE('',#1122,#541);
#470=LINE('',#1126,#542);
#471=LINE('',#1128,#543);
#472=LINE('',#1130,#544);
#473=LINE('',#1134,#545);
#474=LINE('',#1138,#546);
#475=LINE('',#1140,#547);
#476=LINE('',#1142,#548);
#477=LINE('',#1146,#549);
#478=LINE('',#1153,#550);
#479=LINE('',#1157,#551);
#480=LINE('',#1159,#552);
#481=LINE('',#1161,#553);
#482=LINE('',#1163,#554);
#483=LINE('',#1167,#555);
#484=LINE('',#1171,#556);
#485=LINE('',#1173,#557);
#486=LINE('',#1175,#558);
#487=LINE('',#1179,#559);
#488=LINE('',#1183,#560);
#489=LINE('',#1185,#561);
#490=LINE('',#1187,#562);
#491=LINE('',#1191,#563);
#492=LINE('',#1198,#564);
#493=LINE('',#1202,#565);
#494=LINE('',#1204,#566);
#495=LINE('',#1206,#567);
#496=LINE('',#1208,#568);
#497=LINE('',#1212,#569);
#498=LINE('',#1216,#570);
#499=LINE('',#1218,#571);
#500=LINE('',#1220,#572);
#501=LINE('',#1224,#573);
#502=LINE('',#1228,#574);
#503=LINE('',#1230,#575);
#504=LINE('',#1232,#576);
#505=LINE('',#1236,#577);
#506=LINE('',#1260,#578);
#507=LINE('',#1261,#579);
#508=LINE('',#1263,#580);
#509=LINE('',#1264,#581);
#510=LINE('',#1266,#582);
#511=LINE('',#1267,#583);
#512=LINE('',#1269,#584);
#513=LINE('',#1270,#585);
#514=LINE('',#1272,#586);
#515=LINE('',#1273,#587);
#516=VECTOR('',#851,1.);
#517=VECTOR('',#852,1.);
#518=VECTOR('',#853,1.);
#519=VECTOR('',#854,1.);
#520=VECTOR('',#857,1.);
#521=VECTOR('',#858,1.);
#522=VECTOR('',#859,1.);
#523=VECTOR('',#862,1.);
#524=VECTOR('',#863,1.);
#525=VECTOR('',#864,1.);
#526=VECTOR('',#867,1.);
#527=VECTOR('',#868,1.);
#528=VECTOR('',#869,1.);
#529=VECTOR('',#870,1.);
#530=VECTOR('',#873,1.);
#531=VECTOR('',#874,1.);
#532=VECTOR('',#875,1.);
#533=VECTOR('',#878,1.);
#534=VECTOR('',#879,1.);
#535=VECTOR('',#880,1.);
#536=VECTOR('',#885,1.);
#537=VECTOR('',#888,1.);
#538=VECTOR('',#891,1.);
#539=VECTOR('',#892,1.);
#540=VECTOR('',#893,1.);
#541=VECTOR('',#898,1.);
#542=VECTOR('',#903,1.);
#543=VECTOR('',#904,1.);
#544=VECTOR('',#905,1.);
#545=VECTOR('',#910,1.);
#546=VECTOR('',#915,1.);
#547=VECTOR('',#916,1.);
#548=VECTOR('',#917,1.);
#549=VECTOR('',#922,1.);
#550=VECTOR('',#929,1.);
#551=VECTOR('',#932,1.);
#552=VECTOR('',#935,1.);
#553=VECTOR('',#936,1.);
#554=VECTOR('',#937,1.);
#555=VECTOR('',#942,1.);
#556=VECTOR('',#947,1.);
#557=VECTOR('',#948,1.);
#558=VECTOR('',#949,1.);
#559=VECTOR('',#954,1.);
#560=VECTOR('',#959,1.);
#561=VECTOR('',#960,1.);
#562=VECTOR('',#961,1.);
#563=VECTOR('',#966,1.);
#564=VECTOR('',#973,1.);
#565=VECTOR('',#976,1.);
#566=VECTOR('',#979,1.);
#567=VECTOR('',#980,1.);
#568=VECTOR('',#981,1.);
#569=VECTOR('',#986,1.);
#570=VECTOR('',#991,1.);
#571=VECTOR('',#992,1.);
#572=VECTOR('',#993,1.);
#573=VECTOR('',#998,1.);
#574=VECTOR('',#1003,1.);
#575=VECTOR('',#1004,1.);
#576=VECTOR('',#1005,1.);
#577=VECTOR('',#1010,1.);
#578=VECTOR('',#1039,1.);
#579=VECTOR('',#1040,1.);
#580=VECTOR('',#1043,1.);
#581=VECTOR('',#1044,1.);
#582=VECTOR('',#1047,1.);
#583=VECTOR('',#1048,1.);
#584=VECTOR('',#1051,1.);
#585=VECTOR('',#1052,1.);
#586=VECTOR('',#1055,1.);
#587=VECTOR('',#1056,1.);
#588=EDGE_LOOP('',(#60,#61,#62,#63));
#589=EDGE_LOOP('',(#64,#65,#66,#67));
#590=EDGE_LOOP('',(#68,#69,#70,#71));
#591=EDGE_LOOP('',(#72,#73,#74,#75));
#592=EDGE_LOOP('',(#76,#77,#78,#79));
#593=EDGE_LOOP('',(#80,#81,#82,#83));
#594=EDGE_LOOP('',(#84,#85,#86,#87));
#595=EDGE_LOOP('',(#88,#89,#90,#91));
#596=EDGE_LOOP('',(#92,#93,#94,#95));
#597=EDGE_LOOP('',(#96,#97,#98,#99));
#598=EDGE_LOOP('',(#100,#101,#102,#103));
#599=EDGE_LOOP('',(#104,#105,#106,#107));
#600=EDGE_LOOP('',(#108,#109,#110,#111));
#601=EDGE_LOOP('',(#112,#113,#114,#115));
#602=EDGE_LOOP('',(#116,#117,#118,#119));
#603=EDGE_LOOP('',(#120,#121,#122,#123));
#604=EDGE_LOOP('',(#124,#125,#126,#127));
#605=EDGE_LOOP('',(#128,#129,#130,#131));
#606=EDGE_LOOP('',(#132,#133,#134,#135));
#607=EDGE_LOOP('',(#136,#137,#138,#139));
#608=EDGE_LOOP('',(#140,#141,#142,#143));
#609=EDGE_LOOP('',(#144,#145,#146,#147));
#610=EDGE_LOOP('',(#148,#149,#150,#151));
#611=EDGE_LOOP('',(#152,#153,#154,#155));
#612=EDGE_LOOP('',(#156,#157,#158,#159));
#613=EDGE_LOOP('',(#160,#161,#162,#163));
#614=EDGE_LOOP('',(#164,#165,#166,#167));
#615=EDGE_LOOP('',(#168));
#616=EDGE_LOOP('',(#169));
#617=EDGE_LOOP('',(#170));
#618=EDGE_LOOP('',(#171));
#619=EDGE_LOOP('',(#172));
#620=EDGE_LOOP('',(#173));
#621=EDGE_LOOP('',(#174));
#622=EDGE_LOOP('',(#175));
#623=EDGE_LOOP('',(#176,#177,#178,#179));
#624=EDGE_LOOP('',(#180,#181,#182,#183));
#625=EDGE_LOOP('',(#184,#185,#186,#187));
#626=EDGE_LOOP('',(#188,#189,#190,#191));
#627=EDGE_LOOP('',(#192,#193,#194,#195));
#628=EDGE_LOOP('',(#196,#197,#198,#199,#200,#201,#202,#203));
#629=EDGE_LOOP('',(#204,#205,#206,#207,#208,#209,#210,#211));
#630=EDGE_LOOP('',(#212,#213,#214,#215,#216,#217,#218,#219));
#631=EDGE_LOOP('',(#220,#221,#222,#223));
#632=EDGE_LOOP('',(#224));
#633=EDGE_LOOP('',(#225));
#634=EDGE_LOOP('',(#226));
#635=EDGE_LOOP('',(#227));
#636=EDGE_LOOP('',(#228,#229,#230,#231));
#637=EDGE_LOOP('',(#232,#233,#234,#235,#236,#237,#238,#239));
#638=EDGE_LOOP('',(#240,#241,#242,#243,#244,#245,#246,#247));
#639=EDGE_LOOP('',(#248,#249,#250,#251,#252,#253,#254,#255));
#640=EDGE_LOOP('',(#256,#257,#258,#259));
#641=EDGE_LOOP('',(#260));
#642=EDGE_LOOP('',(#261));
#643=EDGE_LOOP('',(#262));
#644=EDGE_LOOP('',(#263));
#645=EDGE_LOOP('',(#264,#265,#266,#267));
#646=FACE_BOUND('',#588,.T.);
#647=FACE_BOUND('',#589,.T.);
#648=FACE_BOUND('',#590,.T.);
#649=FACE_BOUND('',#591,.T.);
#650=FACE_BOUND('',#592,.T.);
#651=FACE_BOUND('',#593,.T.);
#652=FACE_BOUND('',#594,.T.);
#653=FACE_BOUND('',#595,.T.);
#654=FACE_BOUND('',#596,.T.);
#655=FACE_BOUND('',#597,.T.);
#656=FACE_BOUND('',#598,.T.);
#657=FACE_BOUND('',#599,.T.);
#658=FACE_BOUND('',#600,.T.);
#659=FACE_BOUND('',#601,.T.);
#660=FACE_BOUND('',#602,.T.);
#661=FACE_BOUND('',#603,.T.);
#662=FACE_BOUND('',#604,.T.);
#663=FACE_BOUND('',#605,.T.);
#664=FACE_BOUND('',#606,.T.);
#665=FACE_BOUND('',#607,.T.);
#666=FACE_BOUND('',#608,.T.);
#667=FACE_BOUND('',#609,.T.);
#668=FACE_BOUND('',#610,.T.);
#669=FACE_BOUND('',#611,.T.);
#670=FACE_BOUND('',#612,.T.);
#671=FACE_BOUND('',#613,.T.);
#672=FACE_BOUND('',#614,.T.);
#673=FACE_BOUND('',#615,.T.);
#674=FACE_BOUND('',#616,.T.);
#675=FACE_BOUND('',#617,.T.);
#676=FACE_BOUND('',#618,.T.);
#677=FACE_BOUND('',#619,.T.);
#678=FACE_BOUND('',#620,.T.);
#679=FACE_BOUND('',#621,.T.);
#680=FACE_BOUND('',#622,.T.);
#681=FACE_BOUND('',#623,.T.);
#682=FACE_BOUND('',#624,.T.);
#683=FACE_BOUND('',#625,.T.);
#684=FACE_BOUND('',#626,.T.);
#685=FACE_BOUND('',#627,.T.);
#686=FACE_BOUND('',#628,.T.);
#687=FACE_BOUND('',#629,.T.);
#688=FACE_BOUND('',#630,.T.);
#689=FACE_BOUND('',#631,.T.);
#690=FACE_BOUND('',#632,.T.);
#691=FACE_BOUND('',#633,.T.);
#692=FACE_BOUND('',#634,.T.);
#693=FACE_BOUND('',#635,.T.);
#694=FACE_BOUND('',#636,.T.);
#695=FACE_BOUND('',#637,.T.);
#696=FACE_BOUND('',#638,.T.);
#697=FACE_BOUND('',#639,.T.);
#698=FACE_BOUND('',#640,.T.);
#699=FACE_BOUND('',#641,.T.);
#700=FACE_BOUND('',#642,.T.);
#701=FACE_BOUND('',#643,.T.);
#702=FACE_BOUND('',#644,.T.);
#703=FACE_BOUND('',#645,.T.);
#704=PLANE('',#777);
#705=PLANE('',#778);
#706=PLANE('',#779);
#707=PLANE('',#780);
#708=PLANE('',#781);
#709=PLANE('',#782);
#710=PLANE('',#786);
#711=PLANE('',#790);
#712=PLANE('',#794);
#713=PLANE('',#801);
#714=PLANE('',#805);
#715=PLANE('',#809);
#716=PLANE('',#816);
#717=PLANE('',#820);
#718=PLANE('',#824);
#719=PLANE('',#840);
#720=PLANE('',#841);
#721=PLANE('',#842);
#722=PLANE('',#843);
#723=PLANE('',#844);
#724=PLANE('',#845);
#725=PLANE('',#846);
#726=ADVANCED_FACE('',(#646),#704,.T.);
#727=ADVANCED_FACE('',(#647),#705,.F.);
#728=ADVANCED_FACE('',(#648),#706,.F.);
#729=ADVANCED_FACE('',(#649),#707,.T.);
#730=ADVANCED_FACE('',(#650),#708,.F.);
#731=ADVANCED_FACE('',(#651),#709,.F.);
#732=ADVANCED_FACE('',(#652),#44,.F.);
#733=ADVANCED_FACE('',(#653),#710,.F.);
#734=ADVANCED_FACE('',(#654),#45,.F.);
#735=ADVANCED_FACE('',(#655),#711,.F.);
#736=ADVANCED_FACE('',(#656),#46,.F.);
#737=ADVANCED_FACE('',(#657),#712,.T.);
#738=ADVANCED_FACE('',(#658),#47,.F.);
#739=ADVANCED_FACE('',(#659),#48,.F.);
#740=ADVANCED_FACE('',(#660),#713,.F.);
#741=ADVANCED_FACE('',(#661),#49,.F.);
#742=ADVANCED_FACE('',(#662),#714,.F.);
#743=ADVANCED_FACE('',(#663),#50,.F.);
#744=ADVANCED_FACE('',(#664),#715,.T.);
#745=ADVANCED_FACE('',(#665),#51,.F.);
#746=ADVANCED_FACE('',(#666),#52,.F.);
#747=ADVANCED_FACE('',(#667),#716,.F.);
#748=ADVANCED_FACE('',(#668),#53,.F.);
#749=ADVANCED_FACE('',(#669),#717,.F.);
#750=ADVANCED_FACE('',(#670),#54,.F.);
#751=ADVANCED_FACE('',(#671),#718,.T.);
#752=ADVANCED_FACE('',(#672),#55,.F.);
#753=ADVANCED_FACE('',(#673,#674),#56,.F.);
#754=ADVANCED_FACE('',(#675,#676),#57,.F.);
#755=ADVANCED_FACE('',(#677,#678),#58,.F.);
#756=ADVANCED_FACE('',(#679,#680),#59,.F.);
#757=ADVANCED_FACE('',(#681),#719,.T.);
#758=ADVANCED_FACE('',(#682),#720,.T.);
#759=ADVANCED_FACE('',(#683),#721,.T.);
#760=ADVANCED_FACE('',(#684),#722,.T.);
#761=ADVANCED_FACE('',(#685),#723,.T.);
#762=ADVANCED_FACE('',(#686,#687,#688,#689,#690,#691,#692,#693,#694),#724,
 .T.);
#763=ADVANCED_FACE('',(#695,#696,#697,#698,#699,#700,#701,#702,#703),#725,
 .F.);
#764=CLOSED_SHELL('',(#726,#727,#728,#729,#730,#731,#732,#733,#734,#735,
#736,#737,#738,#739,#740,#741,#742,#743,#744,#745,#746,#747,#748,#749,#750,
#751,#752,#753,#754,#755,#756,#757,#758,#759,#760,#761,#762,#763));
#765=STYLED_ITEM('',(#766),#773);
#766=PRESENTATION_STYLE_ASSIGNMENT((#767));
#767=SURFACE_STYLE_USAGE(.BOTH.,#768);
#768=SURFACE_SIDE_STYLE('',(#769));
#769=SURFACE_STYLE_FILL_AREA(#770);
#770=FILL_AREA_STYLE('',(#771));
#771=FILL_AREA_STYLE_COLOUR('',#772);
#772=COLOUR_RGB('',0.647058823529412,0.647058823529412,0.647058823529412);
#773=MANIFOLD_SOLID_BREP('Part 2',#764);
#774=SHAPE_DEFINITION_REPRESENTATION(#1282,#775);
#775=SHAPE_REPRESENTATION('Part 2',(#776),#1277);
#776=AXIS2_PLACEMENT_3D('',#1061,#847,#848);
#777=AXIS2_PLACEMENT_3D('',#1062,#849,#850);
#778=AXIS2_PLACEMENT_3D('',#1071,#855,#856);
#779=AXIS2_PLACEMENT_3D('',#1077,#860,#861);
#780=AXIS2_PLACEMENT_3D('',#1083,#865,#866);
#781=AXIS2_PLACEMENT_3D('',#1092,#871,#872);
#782=AXIS2_PLACEMENT_3D('',#1098,#876,#877);
#783=AXIS2_PLACEMENT_3D('',#1104,#881,#882);
#784=AXIS2_PLACEMENT_3D('',#1105,#883,#884);
#785=AXIS2_PLACEMENT_3D('',#1110,#886,#887);
#786=AXIS2_PLACEMENT_3D('',#1113,#889,#890);
#787=AXIS2_PLACEMENT_3D('',#1119,#894,#895);
#788=AXIS2_PLACEMENT_3D('',#1120,#896,#897);
#789=AXIS2_PLACEMENT_3D('',#1124,#899,#900);
#790=AXIS2_PLACEMENT_3D('',#1125,#901,#902);
#791=AXIS2_PLACEMENT_3D('',#1131,#906,#907);
#792=AXIS2_PLACEMENT_3D('',#1132,#908,#909);
#793=AXIS2_PLACEMENT_3D('',#1136,#911,#912);
#794=AXIS2_PLACEMENT_3D('',#1137,#913,#914);
#795=AXIS2_PLACEMENT_3D('',#1143,#918,#919);
#796=AXIS2_PLACEMENT_3D('',#1144,#920,#921);
#797=AXIS2_PLACEMENT_3D('',#1148,#923,#924);
#798=AXIS2_PLACEMENT_3D('',#1149,#925,#926);
#799=AXIS2_PLACEMENT_3D('',#1150,#927,#928);
#800=AXIS2_PLACEMENT_3D('',#1155,#930,#931);
#801=AXIS2_PLACEMENT_3D('',#1158,#933,#934);
#802=AXIS2_PLACEMENT_3D('',#1164,#938,#939);
#803=AXIS2_PLACEMENT_3D('',#1165,#940,#941);
#804=AXIS2_PLACEMENT_3D('',#1169,#943,#944);
#805=AXIS2_PLACEMENT_3D('',#1170,#945,#946);
#806=AXIS2_PLACEMENT_3D('',#1176,#950,#951);
#807=AXIS2_PLACEMENT_3D('',#1177,#952,#953);
#808=AXIS2_PLACEMENT_3D('',#1181,#955,#956);
#809=AXIS2_PLACEMENT_3D('',#1182,#957,#958);
#810=AXIS2_PLACEMENT_3D('',#1188,#962,#963);
#811=AXIS2_PLACEMENT_3D('',#1189,#964,#965);
#812=AXIS2_PLACEMENT_3D('',#1193,#967,#968);
#813=AXIS2_PLACEMENT_3D('',#1194,#969,#970);
#814=AXIS2_PLACEMENT_3D('',#1195,#971,#972);
#815=AXIS2_PLACEMENT_3D('',#1200,#974,#975);
#816=AXIS2_PLACEMENT_3D('',#1203,#977,#978);
#817=AXIS2_PLACEMENT_3D('',#1209,#982,#983);
#818=AXIS2_PLACEMENT_3D('',#1210,#984,#985);
#819=AXIS2_PLACEMENT_3D('',#1214,#987,#988);
#820=AXIS2_PLACEMENT_3D('',#1215,#989,#990);
#821=AXIS2_PLACEMENT_3D('',#1221,#994,#995);
#822=AXIS2_PLACEMENT_3D('',#1222,#996,#997);
#823=AXIS2_PLACEMENT_3D('',#1226,#999,#1000);
#824=AXIS2_PLACEMENT_3D('',#1227,#1001,#1002);
#825=AXIS2_PLACEMENT_3D('',#1233,#1006,#1007);
#826=AXIS2_PLACEMENT_3D('',#1234,#1008,#1009);
#827=AXIS2_PLACEMENT_3D('',#1238,#1011,#1012);
#828=AXIS2_PLACEMENT_3D('',#1239,#1013,#1014);
#829=AXIS2_PLACEMENT_3D('',#1240,#1015,#1016);
#830=AXIS2_PLACEMENT_3D('',#1242,#1017,#1018);
#831=AXIS2_PLACEMENT_3D('',#1244,#1019,#1020);
#832=AXIS2_PLACEMENT_3D('',#1245,#1021,#1022);
#833=AXIS2_PLACEMENT_3D('',#1247,#1023,#1024);
#834=AXIS2_PLACEMENT_3D('',#1249,#1025,#1026);
#835=AXIS2_PLACEMENT_3D('',#1250,#1027,#1028);
#836=AXIS2_PLACEMENT_3D('',#1252,#1029,#1030);
#837=AXIS2_PLACEMENT_3D('',#1254,#1031,#1032);
#838=AXIS2_PLACEMENT_3D('',#1255,#1033,#1034);
#839=AXIS2_PLACEMENT_3D('',#1257,#1035,#1036);
#840=AXIS2_PLACEMENT_3D('',#1259,#1037,#1038);
#841=AXIS2_PLACEMENT_3D('',#1262,#1041,#1042);
#842=AXIS2_PLACEMENT_3D('',#1265,#1045,#1046);
#843=AXIS2_PLACEMENT_3D('',#1268,#1049,#1050);
#844=AXIS2_PLACEMENT_3D('',#1271,#1053,#1054);
#845=AXIS2_PLACEMENT_3D('',#1274,#1057,#1058);
#846=AXIS2_PLACEMENT_3D('',#1275,#1059,#1060);
#847=DIRECTION('',(0.,0.,1.));
#848=DIRECTION('',(1.,0.,0.));
#849=DIRECTION('',(0.,1.,0.));
#850=DIRECTION('',(0.,0.,1.));
#851=DIRECTION('',(1.,0.,0.));
#852=DIRECTION('',(0.,0.,-1.));
#853=DIRECTION('',(1.,0.,0.));
#854=DIRECTION('',(0.,0.,-1.));
#855=DIRECTION('',(1.,0.,0.));
#856=DIRECTION('',(0.,0.,-1.));
#857=DIRECTION('',(0.,-1.,0.));
#858=DIRECTION('',(0.,0.,-1.));
#859=DIRECTION('',(0.,-1.,0.));
#860=DIRECTION('',(0.,1.,0.));
#861=DIRECTION('',(0.,0.,1.));
#862=DIRECTION('',(1.,0.,0.));
#863=DIRECTION('',(0.,0.,-1.));
#864=DIRECTION('',(1.,0.,0.));
#865=DIRECTION('',(0.,1.,0.));
#866=DIRECTION('',(0.,0.,1.));
#867=DIRECTION('',(1.,0.,0.));
#868=DIRECTION('',(0.,0.,-1.));
#869=DIRECTION('',(1.,0.,0.));
#870=DIRECTION('',(0.,0.,-1.));
#871=DIRECTION('',(-1.,-1.82602471155453E-16,0.));
#872=DIRECTION('',(1.82602471155453E-16,-1.,0.));
#873=DIRECTION('',(-1.82602471155453E-16,1.,0.));
#874=DIRECTION('',(0.,0.,-1.));
#875=DIRECTION('',(-1.82602471155453E-16,1.,0.));
#876=DIRECTION('',(0.,1.,0.));
#877=DIRECTION('',(0.,0.,1.));
#878=DIRECTION('',(1.,0.,0.));
#879=DIRECTION('',(0.,0.,-1.));
#880=DIRECTION('',(1.,0.,0.));
#881=DIRECTION('',(0.,0.,-1.));
#882=DIRECTION('',(-1.,0.,0.));
#883=DIRECTION('',(0.,0.,1.));
#884=DIRECTION('',(1.,0.,0.));
#885=DIRECTION('',(0.,0.,-1.));
#886=DIRECTION('',(0.,0.,1.));
#887=DIRECTION('',(1.,0.,0.));
#888=DIRECTION('',(0.,0.,-1.));
#889=DIRECTION('',(-1.,6.67201336914157E-17,0.));
#890=DIRECTION('',(-6.67201336914157E-17,-1.,0.));
#891=DIRECTION('',(6.67201336914157E-17,1.,0.));
#892=DIRECTION('',(0.,0.,-1.));
#893=DIRECTION('',(6.67201336914157E-17,1.,0.));
#894=DIRECTION('',(0.,0.,-1.));
#895=DIRECTION('',(-1.,0.,0.));
#896=DIRECTION('',(0.,0.,1.));
#897=DIRECTION('',(1.,0.,0.));
#898=DIRECTION('',(0.,0.,-1.));
#899=DIRECTION('',(0.,0.,1.));
#900=DIRECTION('',(1.,0.,0.));
#901=DIRECTION('',(0.,1.,0.));
#902=DIRECTION('',(0.,0.,1.));
#903=DIRECTION('',(1.,0.,0.));
#904=DIRECTION('',(0.,0.,-1.));
#905=DIRECTION('',(1.,0.,0.));
#906=DIRECTION('',(0.,0.,-1.));
#907=DIRECTION('',(-1.,0.,0.));
#908=DIRECTION('',(0.,0.,1.));
#909=DIRECTION('',(1.,0.,0.));
#910=DIRECTION('',(0.,0.,-1.));
#911=DIRECTION('',(0.,0.,1.));
#912=DIRECTION('',(1.,0.,0.));
#913=DIRECTION('',(-1.,0.,0.));
#914=DIRECTION('',(0.,0.,1.));
#915=DIRECTION('',(0.,1.,0.));
#916=DIRECTION('',(0.,0.,-1.));
#917=DIRECTION('',(0.,1.,0.));
#918=DIRECTION('',(0.,0.,-1.));
#919=DIRECTION('',(-1.,0.,0.));
#920=DIRECTION('',(0.,0.,1.));
#921=DIRECTION('',(1.,0.,0.));
#922=DIRECTION('',(0.,0.,-1.));
#923=DIRECTION('',(0.,0.,1.));
#924=DIRECTION('',(1.,0.,0.));
#925=DIRECTION('',(0.,0.,-1.));
#926=DIRECTION('',(-1.,0.,0.));
#927=DIRECTION('',(0.,0.,1.));
#928=DIRECTION('',(1.,0.,0.));
#929=DIRECTION('',(0.,0.,-1.));
#930=DIRECTION('',(0.,0.,1.));
#931=DIRECTION('',(1.,0.,0.));
#932=DIRECTION('',(0.,0.,-1.));
#933=DIRECTION('',(-1.,6.67201336914157E-17,0.));
#934=DIRECTION('',(-6.67201336914157E-17,-1.,0.));
#935=DIRECTION('',(6.67201336914157E-17,1.,0.));
#936=DIRECTION('',(0.,0.,-1.));
#937=DIRECTION('',(6.67201336914157E-17,1.,0.));
#938=DIRECTION('',(0.,0.,-1.));
#939=DIRECTION('',(-1.,0.,0.));
#940=DIRECTION('',(0.,0.,1.));
#941=DIRECTION('',(1.,0.,0.));
#942=DIRECTION('',(0.,0.,-1.));
#943=DIRECTION('',(0.,0.,1.));
#944=DIRECTION('',(1.,0.,0.));
#945=DIRECTION('',(0.,1.,0.));
#946=DIRECTION('',(0.,0.,1.));
#947=DIRECTION('',(1.,0.,0.));
#948=DIRECTION('',(0.,0.,-1.));
#949=DIRECTION('',(1.,0.,0.));
#950=DIRECTION('',(0.,0.,-1.));
#951=DIRECTION('',(-1.,0.,0.));
#952=DIRECTION('',(0.,0.,1.));
#953=DIRECTION('',(1.,0.,0.));
#954=DIRECTION('',(0.,0.,-1.));
#955=DIRECTION('',(0.,0.,1.));
#956=DIRECTION('',(1.,0.,0.));
#957=DIRECTION('',(-1.,0.,0.));
#958=DIRECTION('',(0.,0.,1.));
#959=DIRECTION('',(0.,1.,0.));
#960=DIRECTION('',(0.,0.,-1.));
#961=DIRECTION('',(0.,1.,0.));
#962=DIRECTION('',(0.,0.,-1.));
#963=DIRECTION('',(-1.,0.,0.));
#964=DIRECTION('',(0.,0.,1.));
#965=DIRECTION('',(1.,0.,0.));
#966=DIRECTION('',(0.,0.,-1.));
#967=DIRECTION('',(0.,0.,1.));
#968=DIRECTION('',(1.,0.,0.));
#969=DIRECTION('',(0.,0.,-1.));
#970=DIRECTION('',(-1.,0.,0.));
#971=DIRECTION('',(0.,0.,1.));
#972=DIRECTION('',(1.,0.,0.));
#973=DIRECTION('',(0.,0.,-1.));
#974=DIRECTION('',(0.,0.,1.));
#975=DIRECTION('',(1.,0.,0.));
#976=DIRECTION('',(0.,0.,-1.));
#977=DIRECTION('',(-1.,6.67201336914157E-17,0.));
#978=DIRECTION('',(-6.67201336914157E-17,-1.,0.));
#979=DIRECTION('',(6.67201336914157E-17,1.,0.));
#980=DIRECTION('',(0.,0.,-1.));
#981=DIRECTION('',(6.67201336914157E-17,1.,0.));
#982=DIRECTION('',(0.,0.,-1.));
#983=DIRECTION('',(-1.,0.,0.));
#984=DIRECTION('',(0.,0.,1.));
#985=DIRECTION('',(1.,0.,0.));
#986=DIRECTION('',(0.,0.,-1.));
#987=DIRECTION('',(0.,0.,1.));
#988=DIRECTION('',(1.,0.,0.));
#989=DIRECTION('',(6.67201336914157E-17,1.,0.));
#990=DIRECTION('',(-1.,6.67201336914157E-17,0.));
#991=DIRECTION('',(1.,-6.67201336914157E-17,0.));
#992=DIRECTION('',(0.,0.,-1.));
#993=DIRECTION('',(1.,-6.67201336914157E-17,0.));
#994=DIRECTION('',(0.,0.,-1.));
#995=DIRECTION('',(-1.,0.,0.));
#996=DIRECTION('',(0.,0.,1.));
#997=DIRECTION('',(1.,0.,0.));
#998=DIRECTION('',(0.,0.,-1.));
#999=DIRECTION('',(0.,0.,1.));
#1000=DIRECTION('',(1.,0.,0.));
#1001=DIRECTION('',(-1.,0.,0.));
#1002=DIRECTION('',(0.,0.,1.));
#1003=DIRECTION('',(0.,1.,0.));
#1004=DIRECTION('',(0.,0.,-1.));
#1005=DIRECTION('',(0.,1.,0.));
#1006=DIRECTION('',(0.,0.,-1.));
#1007=DIRECTION('',(-1.,0.,0.));
#1008=DIRECTION('',(0.,0.,1.));
#1009=DIRECTION('',(1.,0.,0.));
#1010=DIRECTION('',(0.,0.,-1.));
#1011=DIRECTION('',(0.,0.,1.));
#1012=DIRECTION('',(1.,0.,0.));
#1013=DIRECTION('',(0.,0.,-1.));
#1014=DIRECTION('',(-1.,0.,0.));
#1015=DIRECTION('',(0.,0.,1.));
#1016=DIRECTION('',(1.,0.,0.));
#1017=DIRECTION('',(0.,0.,1.));
#1018=DIRECTION('',(1.,0.,0.));
#1019=DIRECTION('',(0.,0.,-1.));
#1020=DIRECTION('',(-1.,0.,0.));
#1021=DIRECTION('',(0.,0.,1.));
#1022=DIRECTION('',(1.,0.,0.));
#1023=DIRECTION('',(0.,0.,1.));
#1024=DIRECTION('',(1.,0.,0.));
#1025=DIRECTION('',(0.,0.,-1.));
#1026=DIRECTION('',(-1.,0.,0.));
#1027=DIRECTION('',(0.,0.,1.));
#1028=DIRECTION('',(1.,0.,0.));
#1029=DIRECTION('',(0.,0.,1.));
#1030=DIRECTION('',(1.,0.,0.));
#1031=DIRECTION('',(0.,0.,-1.));
#1032=DIRECTION('',(-1.,0.,0.));
#1033=DIRECTION('',(0.,0.,1.));
#1034=DIRECTION('',(1.,0.,0.));
#1035=DIRECTION('',(0.,0.,1.));
#1036=DIRECTION('',(1.,0.,0.));
#1037=DIRECTION('',(-1.,-1.82602471155453E-16,0.));
#1038=DIRECTION('',(1.82602471155453E-16,-1.,0.));
#1039=DIRECTION('',(-1.82602471155453E-16,1.,0.));
#1040=DIRECTION('',(-1.82602471155453E-16,1.,0.));
#1041=DIRECTION('',(0.,1.,0.));
#1042=DIRECTION('',(0.,0.,1.));
#1043=DIRECTION('',(1.,0.,0.));
#1044=DIRECTION('',(1.,0.,0.));
#1045=DIRECTION('',(6.15076232467738E-17,1.,0.));
#1046=DIRECTION('',(-1.,6.15076232467738E-17,0.));
#1047=DIRECTION('',(1.,-6.15076232467738E-17,0.));
#1048=DIRECTION('',(1.,-6.15076232467738E-17,0.));
#1049=DIRECTION('',(0.,1.,0.));
#1050=DIRECTION('',(0.,0.,1.));
#1051=DIRECTION('',(1.,0.,0.));
#1052=DIRECTION('',(1.,0.,0.));
#1053=DIRECTION('',(1.,0.,0.));
#1054=DIRECTION('',(0.,0.,-1.));
#1055=DIRECTION('',(0.,-1.,0.));
#1056=DIRECTION('',(0.,-1.,0.));
#1057=DIRECTION('',(0.,0.,1.));
#1058=DIRECTION('',(1.,0.,0.));
#1059=DIRECTION('',(0.,0.,1.));
#1060=DIRECTION('',(1.,0.,0.));
#1061=CARTESIAN_POINT('',(0.,0.,0.));
#1062=CARTESIAN_POINT('',(0.00214386264532804,0.0463384730195999,0.016));
#1063=CARTESIAN_POINT('',(0.00214386264532804,0.0463384730195999,0.013));
#1064=CARTESIAN_POINT('',(-0.0279892606536048,0.0463384730195999,0.013));
#1065=CARTESIAN_POINT('',(0.0322769859442609,0.0463384730195999,0.013));
#1066=CARTESIAN_POINT('',(-0.0279892606536048,0.0463384730195999,0.016));
#1067=CARTESIAN_POINT('',(-0.0279892606536048,0.0463384730195999,0.016));
#1068=CARTESIAN_POINT('',(0.00214386264532804,0.0463384730195999,0.016));
#1069=CARTESIAN_POINT('',(0.0322769859442609,0.0463384730195999,0.016));
#1070=CARTESIAN_POINT('',(0.0322769859442609,0.0463384730195999,0.016));
#1071=CARTESIAN_POINT('',(-0.0279892606536048,0.00732847301959991,0.016));
#1072=CARTESIAN_POINT('',(-0.0279892606536048,0.00732847301959991,0.013));
#1073=CARTESIAN_POINT('',(-0.0279892606536048,-0.0316815269804001,0.013));
#1074=CARTESIAN_POINT('',(-0.0279892606536048,-0.0316815269804001,0.016));
#1075=CARTESIAN_POINT('',(-0.0279892606536048,-0.0316815269804001,0.016));
#1076=CARTESIAN_POINT('',(-0.0279892606536048,0.00732847301959991,0.016));
#1077=CARTESIAN_POINT('',(0.00214386264532805,-0.0316815269804001,0.016));
#1078=CARTESIAN_POINT('',(0.00214386264532805,-0.0316815269804001,0.013));
#1079=CARTESIAN_POINT('',(0.0322769859442609,-0.0316815269804001,0.013));
#1080=CARTESIAN_POINT('',(0.0322769859442609,-0.0316815269804001,0.016));
#1081=CARTESIAN_POINT('',(0.0322769859442609,-0.0316815269804001,0.016));
#1082=CARTESIAN_POINT('',(0.00214386264532805,-0.0316815269804001,0.016));
#1083=CARTESIAN_POINT('',(-0.00956113735467195,-0.0130265269804001,0.016));
#1084=CARTESIAN_POINT('',(-0.00956113735467195,-0.0130265269804001,0.013));
#1085=CARTESIAN_POINT('',(-0.0133842606536048,-0.0130265269804001,0.013));
#1086=CARTESIAN_POINT('',(-0.0057380140557391,-0.0130265269804001,0.013));
#1087=CARTESIAN_POINT('',(-0.0133842606536048,-0.0130265269804001,0.016));
#1088=CARTESIAN_POINT('',(-0.0133842606536048,-0.0130265269804001,0.016));
#1089=CARTESIAN_POINT('',(-0.00956113735467195,-0.0130265269804001,0.016));
#1090=CARTESIAN_POINT('',(-0.0057380140557391,-0.0130265269804001,0.016));
#1091=CARTESIAN_POINT('',(-0.0057380140557391,-0.0130265269804001,0.016));
#1092=CARTESIAN_POINT('',(-0.0133842606536048,0.00597347301959992,0.016));
#1093=CARTESIAN_POINT('',(-0.0133842606536048,0.00597347301959992,0.013));
#1094=CARTESIAN_POINT('',(-0.0133842606536048,0.0249734730195999,0.013));
#1095=CARTESIAN_POINT('',(-0.0133842606536048,0.0249734730195999,0.016));
#1096=CARTESIAN_POINT('',(-0.0133842606536048,0.0249734730195999,0.016));
#1097=CARTESIAN_POINT('',(-0.0133842606536048,0.00597347301959992,0.016));
#1098=CARTESIAN_POINT('',(-0.00956113735467196,0.0249734730195999,0.016));
#1099=CARTESIAN_POINT('',(-0.00956113735467196,0.0249734730195999,0.013));
#1100=CARTESIAN_POINT('',(-0.00573801405573911,0.0249734730195999,0.013));
#1101=CARTESIAN_POINT('',(-0.00573801405573911,0.0249734730195999,0.016));
#1102=CARTESIAN_POINT('',(-0.00573801405573911,0.0249734730195999,0.016));
#1103=CARTESIAN_POINT('',(-0.00956113735467196,0.0249734730195999,0.016));
#1104=CARTESIAN_POINT('',(0.004625,0.0196584730195999,0.016));
#1105=CARTESIAN_POINT('',(0.004625,0.0196584730195999,0.013));
#1106=CARTESIAN_POINT('',(0.004125,0.0196584730195999,0.013));
#1107=CARTESIAN_POINT('',(0.004625,0.0191584730195999,0.013));
#1108=CARTESIAN_POINT('',(0.004125,0.0196584730195999,0.016));
#1109=CARTESIAN_POINT('',(0.004125,0.0196584730195999,0.016));
#1110=CARTESIAN_POINT('',(0.004625,0.0196584730195999,0.016));
#1111=CARTESIAN_POINT('',(0.004625,0.0191584730195999,0.016));
#1112=CARTESIAN_POINT('',(0.004625,0.0191584730195999,0.016));
#1113=CARTESIAN_POINT('',(0.004125,0.0261584730195999,0.016));
#1114=CARTESIAN_POINT('',(0.004125,0.0261584730195999,0.013));
#1115=CARTESIAN_POINT('',(0.004125,0.0326584730195999,0.013));
#1116=CARTESIAN_POINT('',(0.004125,0.0326584730195999,0.016));
#1117=CARTESIAN_POINT('',(0.004125,0.0326584730195999,0.016));
#1118=CARTESIAN_POINT('',(0.004125,0.0261584730195999,0.016));
#1119=CARTESIAN_POINT('',(0.004625,0.0326584730195999,0.016));
#1120=CARTESIAN_POINT('',(0.004625,0.0326584730195999,0.013));
#1121=CARTESIAN_POINT('',(0.004625,0.0331584730195999,0.013));
#1122=CARTESIAN_POINT('',(0.004625,0.0331584730195999,0.016));
#1123=CARTESIAN_POINT('',(0.004625,0.0331584730195999,0.016));
#1124=CARTESIAN_POINT('',(0.004625,0.0326584730195999,0.016));
#1125=CARTESIAN_POINT('',(0.011125,0.0331584730195999,0.016));
#1126=CARTESIAN_POINT('',(0.011125,0.0331584730195999,0.013));
#1127=CARTESIAN_POINT('',(0.017625,0.0331584730195999,0.013));
#1128=CARTESIAN_POINT('',(0.017625,0.0331584730195999,0.016));
#1129=CARTESIAN_POINT('',(0.017625,0.0331584730195999,0.016));
#1130=CARTESIAN_POINT('',(0.011125,0.0331584730195999,0.016));
#1131=CARTESIAN_POINT('',(0.017625,0.0326584730195999,0.016));
#1132=CARTESIAN_POINT('',(0.017625,0.0326584730195999,0.013));
#1133=CARTESIAN_POINT('',(0.018125,0.0326584730195999,0.013));
#1134=CARTESIAN_POINT('',(0.018125,0.0326584730195999,0.016));
#1135=CARTESIAN_POINT('',(0.018125,0.0326584730195999,0.016));
#1136=CARTESIAN_POINT('',(0.017625,0.0326584730195999,0.016));
#1137=CARTESIAN_POINT('',(0.018125,0.0261584730195999,0.016));
#1138=CARTESIAN_POINT('',(0.018125,0.0261584730195999,0.013));
#1139=CARTESIAN_POINT('',(0.018125,0.0196584730195999,0.013));
#1140=CARTESIAN_POINT('',(0.018125,0.0196584730195999,0.016));
#1141=CARTESIAN_POINT('',(0.018125,0.0196584730195999,0.016));
#1142=CARTESIAN_POINT('',(0.018125,0.0261584730195999,0.016));
#1143=CARTESIAN_POINT('',(0.017625,0.0196584730195999,0.016));
#1144=CARTESIAN_POINT('',(0.017625,0.0196584730195999,0.013));
#1145=CARTESIAN_POINT('',(0.017625,0.0191584730195999,0.013));
#1146=CARTESIAN_POINT('',(0.017625,0.0191584730195999,0.016));
#1147=CARTESIAN_POINT('',(0.017625,0.0191584730195999,0.016));
#1148=CARTESIAN_POINT('',(0.017625,0.0196584730195999,0.016));
#1149=CARTESIAN_POINT('',(0.004625,0.000608473019599912,0.016));
#1150=CARTESIAN_POINT('',(0.004625,0.000608473019599912,0.013));
#1151=CARTESIAN_POINT('',(0.004125,0.000608473019599912,0.013));
#1152=CARTESIAN_POINT('',(0.004625,0.000108473019599912,0.013));
#1153=CARTESIAN_POINT('',(0.004125,0.000608473019599912,0.016));
#1154=CARTESIAN_POINT('',(0.004125,0.000608473019599912,0.016));
#1155=CARTESIAN_POINT('',(0.004625,0.000608473019599912,0.016));
#1156=CARTESIAN_POINT('',(0.004625,0.000108473019599912,0.016));
#1157=CARTESIAN_POINT('',(0.004625,0.000108473019599912,0.016));
#1158=CARTESIAN_POINT('',(0.004125,0.00710847301959991,0.016));
#1159=CARTESIAN_POINT('',(0.004125,0.00710847301959991,0.013));
#1160=CARTESIAN_POINT('',(0.004125,0.0136084730195999,0.013));
#1161=CARTESIAN_POINT('',(0.004125,0.0136084730195999,0.016));
#1162=CARTESIAN_POINT('',(0.004125,0.0136084730195999,0.016));
#1163=CARTESIAN_POINT('',(0.004125,0.00710847301959991,0.016));
#1164=CARTESIAN_POINT('',(0.004625,0.0136084730195999,0.016));
#1165=CARTESIAN_POINT('',(0.004625,0.0136084730195999,0.013));
#1166=CARTESIAN_POINT('',(0.004625,0.0141084730195999,0.013));
#1167=CARTESIAN_POINT('',(0.004625,0.0141084730195999,0.016));
#1168=CARTESIAN_POINT('',(0.004625,0.0141084730195999,0.016));
#1169=CARTESIAN_POINT('',(0.004625,0.0136084730195999,0.016));
#1170=CARTESIAN_POINT('',(0.011125,0.0141084730195999,0.016));
#1171=CARTESIAN_POINT('',(0.011125,0.0141084730195999,0.013));
#1172=CARTESIAN_POINT('',(0.017625,0.0141084730195999,0.013));
#1173=CARTESIAN_POINT('',(0.017625,0.0141084730195999,0.016));
#1174=CARTESIAN_POINT('',(0.017625,0.0141084730195999,0.016));
#1175=CARTESIAN_POINT('',(0.011125,0.0141084730195999,0.016));
#1176=CARTESIAN_POINT('',(0.017625,0.0136084730195999,0.016));
#1177=CARTESIAN_POINT('',(0.017625,0.0136084730195999,0.013));
#1178=CARTESIAN_POINT('',(0.018125,0.0136084730195999,0.013));
#1179=CARTESIAN_POINT('',(0.018125,0.0136084730195999,0.016));
#1180=CARTESIAN_POINT('',(0.018125,0.0136084730195999,0.016));
#1181=CARTESIAN_POINT('',(0.017625,0.0136084730195999,0.016));
#1182=CARTESIAN_POINT('',(0.018125,0.00710847301959991,0.016));
#1183=CARTESIAN_POINT('',(0.018125,0.00710847301959991,0.013));
#1184=CARTESIAN_POINT('',(0.018125,0.000608473019599912,0.013));
#1185=CARTESIAN_POINT('',(0.018125,0.000608473019599912,0.016));
#1186=CARTESIAN_POINT('',(0.018125,0.000608473019599912,0.016));
#1187=CARTESIAN_POINT('',(0.018125,0.00710847301959991,0.016));
#1188=CARTESIAN_POINT('',(0.017625,0.000608473019599918,0.016));
#1189=CARTESIAN_POINT('',(0.017625,0.000608473019599918,0.013));
#1190=CARTESIAN_POINT('',(0.017625,0.000108473019599912,0.013));
#1191=CARTESIAN_POINT('',(0.017625,0.000108473019599912,0.016));
#1192=CARTESIAN_POINT('',(0.017625,0.000108473019599912,0.016));
#1193=CARTESIAN_POINT('',(0.017625,0.000608473019599918,0.016));
#1194=CARTESIAN_POINT('',(0.004625,-0.0184415269804001,0.016));
#1195=CARTESIAN_POINT('',(0.004625,-0.0184415269804001,0.013));
#1196=CARTESIAN_POINT('',(0.004125,-0.0184415269804001,0.013));
#1197=CARTESIAN_POINT('',(0.004625,-0.0189415269804001,0.013));
#1198=CARTESIAN_POINT('',(0.004125,-0.0184415269804001,0.016));
#1199=CARTESIAN_POINT('',(0.004125,-0.0184415269804001,0.016));
#1200=CARTESIAN_POINT('',(0.004625,-0.0184415269804001,0.016));
#1201=CARTESIAN_POINT('',(0.004625,-0.0189415269804001,0.016));
#1202=CARTESIAN_POINT('',(0.004625,-0.0189415269804001,0.016));
#1203=CARTESIAN_POINT('',(0.004125,-0.0119415269804001,0.016));
#1204=CARTESIAN_POINT('',(0.004125,-0.0119415269804001,0.013));
#1205=CARTESIAN_POINT('',(0.004125,-0.00544152698040009,0.013));
#1206=CARTESIAN_POINT('',(0.004125,-0.00544152698040009,0.016));
#1207=CARTESIAN_POINT('',(0.004125,-0.00544152698040009,0.016));
#1208=CARTESIAN_POINT('',(0.004125,-0.0119415269804001,0.016));
#1209=CARTESIAN_POINT('',(0.004625,-0.00544152698040009,0.016));
#1210=CARTESIAN_POINT('',(0.004625,-0.00544152698040009,0.013));
#1211=CARTESIAN_POINT('',(0.004625,-0.00494152698040009,0.013));
#1212=CARTESIAN_POINT('',(0.004625,-0.00494152698040009,0.016));
#1213=CARTESIAN_POINT('',(0.004625,-0.00494152698040009,0.016));
#1214=CARTESIAN_POINT('',(0.004625,-0.00544152698040009,0.016));
#1215=CARTESIAN_POINT('',(0.011125,-0.00494152698040009,0.016));
#1216=CARTESIAN_POINT('',(0.011125,-0.00494152698040009,0.013));
#1217=CARTESIAN_POINT('',(0.017625,-0.00494152698040009,0.013));
#1218=CARTESIAN_POINT('',(0.017625,-0.00494152698040009,0.016));
#1219=CARTESIAN_POINT('',(0.017625,-0.00494152698040009,0.016));
#1220=CARTESIAN_POINT('',(0.011125,-0.00494152698040009,0.016));
#1221=CARTESIAN_POINT('',(0.017625,-0.00544152698040009,0.016));
#1222=CARTESIAN_POINT('',(0.017625,-0.00544152698040009,0.013));
#1223=CARTESIAN_POINT('',(0.018125,-0.00544152698040009,0.013));
#1224=CARTESIAN_POINT('',(0.018125,-0.00544152698040009,0.016));
#1225=CARTESIAN_POINT('',(0.018125,-0.00544152698040009,0.016));
#1226=CARTESIAN_POINT('',(0.017625,-0.00544152698040009,0.016));
#1227=CARTESIAN_POINT('',(0.018125,-0.0119415269804001,0.016));
#1228=CARTESIAN_POINT('',(0.018125,-0.0119415269804001,0.013));
#1229=CARTESIAN_POINT('',(0.018125,-0.0184415269804001,0.013));
#1230=CARTESIAN_POINT('',(0.018125,-0.0184415269804001,0.016));
#1231=CARTESIAN_POINT('',(0.018125,-0.0184415269804001,0.016));
#1232=CARTESIAN_POINT('',(0.018125,-0.0119415269804001,0.016));
#1233=CARTESIAN_POINT('',(0.017625,-0.0184415269804001,0.016));
#1234=CARTESIAN_POINT('',(0.017625,-0.0184415269804001,0.013));
#1235=CARTESIAN_POINT('',(0.017625,-0.0189415269804001,0.013));
#1236=CARTESIAN_POINT('',(0.017625,-0.0189415269804001,0.016));
#1237=CARTESIAN_POINT('',(0.017625,-0.0189415269804001,0.016));
#1238=CARTESIAN_POINT('',(0.017625,-0.0184415269804001,0.016));
#1239=CARTESIAN_POINT('',(-0.0229892606536048,0.0413384730195999,0.016));
#1240=CARTESIAN_POINT('',(-0.0229892606536048,0.0413384730195999,0.016));
#1241=CARTESIAN_POINT('',(-0.0215392606536048,0.0413384730195999,0.016));
#1242=CARTESIAN_POINT('',(-0.0229892606536048,0.0413384730195999,0.013));
#1243=CARTESIAN_POINT('',(-0.0215392606536048,0.0413384730195999,0.013));
#1244=CARTESIAN_POINT('',(0.0272769859442609,0.0413384730195999,0.016));
#1245=CARTESIAN_POINT('',(0.0272769859442609,0.0413384730195999,0.016));
#1246=CARTESIAN_POINT('',(0.0287269859442609,0.0413384730195999,0.016));
#1247=CARTESIAN_POINT('',(0.0272769859442609,0.0413384730195999,0.013));
#1248=CARTESIAN_POINT('',(0.0287269859442609,0.0413384730195999,0.013));
#1249=CARTESIAN_POINT('',(0.0272769859442609,-0.0266815269804001,0.016));
#1250=CARTESIAN_POINT('',(0.0272769859442609,-0.0266815269804001,0.016));
#1251=CARTESIAN_POINT('',(0.0287269859442609,-0.0266815269804001,0.016));
#1252=CARTESIAN_POINT('',(0.0272769859442609,-0.0266815269804001,0.013));
#1253=CARTESIAN_POINT('',(0.0287269859442609,-0.0266815269804001,0.013));
#1254=CARTESIAN_POINT('',(-0.0229892606536048,-0.0266815269804001,0.016));
#1255=CARTESIAN_POINT('',(-0.0229892606536048,-0.0266815269804001,0.016));
#1256=CARTESIAN_POINT('',(-0.0215392606536048,-0.0266815269804001,0.016));
#1257=CARTESIAN_POINT('',(-0.0229892606536048,-0.0266815269804001,0.013));
#1258=CARTESIAN_POINT('',(-0.0215392606536048,-0.0266815269804001,0.013));
#1259=CARTESIAN_POINT('',(-0.0057380140557391,0.00597347301959992,0.016));
#1260=CARTESIAN_POINT('',(-0.0057380140557391,0.00597347301959992,0.013));
#1261=CARTESIAN_POINT('',(-0.0057380140557391,0.00597347301959992,0.016));
#1262=CARTESIAN_POINT('',(0.011125,0.0191584730195999,0.016));
#1263=CARTESIAN_POINT('',(0.011125,0.0191584730195999,0.013));
#1264=CARTESIAN_POINT('',(0.011125,0.0191584730195999,0.016));
#1265=CARTESIAN_POINT('',(0.011125,0.000108473019599912,0.016));
#1266=CARTESIAN_POINT('',(0.011125,0.000108473019599912,0.013));
#1267=CARTESIAN_POINT('',(0.011125,0.000108473019599912,0.016));
#1268=CARTESIAN_POINT('',(0.011125,-0.0189415269804001,0.016));
#1269=CARTESIAN_POINT('',(0.011125,-0.0189415269804001,0.013));
#1270=CARTESIAN_POINT('',(0.011125,-0.0189415269804001,0.016));
#1271=CARTESIAN_POINT('',(0.0322769859442609,0.00732847301959991,0.016));
#1272=CARTESIAN_POINT('',(0.0322769859442609,0.00732847301959991,0.013));
#1273=CARTESIAN_POINT('',(0.0322769859442609,0.00732847301959991,0.016));
#1274=CARTESIAN_POINT('',(0.00214386264532805,0.00732847301959991,0.016));
#1275=CARTESIAN_POINT('',(0.00214386264532805,0.00732847301959991,0.013));
#1276=MECHANICAL_DESIGN_GEOMETRIC_PRESENTATION_REPRESENTATION('',(#765),
#1277);
#1277=(
GEOMETRIC_REPRESENTATION_CONTEXT(3)
GLOBAL_UNCERTAINTY_ASSIGNED_CONTEXT((#1278))
GLOBAL_UNIT_ASSIGNED_CONTEXT((#1281,#1280,#1279))
REPRESENTATION_CONTEXT('Part 2','TOP_LEVEL_ASSEMBLY_PART')
);
#1278=UNCERTAINTY_MEASURE_WITH_UNIT(LENGTH_MEASURE(1.E-8),#1281,
'DISTANCE_ACCURACY_VALUE','Maximum Tolerance applied to model');
#1279=(
NAMED_UNIT(*)
SI_UNIT($,.STERADIAN.)
SOLID_ANGLE_UNIT()
);
#1280=(
NAMED_UNIT(*)
PLANE_ANGLE_UNIT()
SI_UNIT($,.RADIAN.)
);
#1281=(
LENGTH_UNIT()
NAMED_UNIT(*)
SI_UNIT($,.METRE.)
);
#1282=PRODUCT_DEFINITION_SHAPE('','',#1283);
#1283=PRODUCT_DEFINITION('','',#1285,#1284);
#1284=PRODUCT_DEFINITION_CONTEXT('',#1291,'design');
#1285=PRODUCT_DEFINITION_FORMATION_WITH_SPECIFIED_SOURCE('','',#1287,
 .NOT_KNOWN.);
#1286=PRODUCT_RELATED_PRODUCT_CATEGORY('','',(#1287));
#1287=PRODUCT('Part 2','Part 2','Part 2',(#1289));
#1288=PRODUCT_CATEGORY('','');
#1289=PRODUCT_CONTEXT('',#1291,'mechanical');
#1290=APPLICATION_PROTOCOL_DEFINITION('international standard',
'ap242_managed_model_based_3d_engineering',2020,#1291);
#1291=APPLICATION_CONTEXT('managed model based 3d engineering');
ENDSEC;
END-ISO-10303-21;
